<?xml version="1.0" encoding="UTF-8" standalone="no"?>
<!DOCTYPE svg PUBLIC "-//W3C//DTD SVG 1.1//EN" "http://www.w3.org/Graphics/SVG/1.1/DTD/svg11.dtd">
<!-- Created with Vectornator (http://vectornator.io/) -->
<svg height="1024.0px" stroke-miterlimit="10" style="fill-rule:nonzero;clip-rule:evenodd;stroke-linecap:round;stroke-linejoin:round;" version="1.1" viewBox="0 0 1024 1024" width="1024.0px" xml:space="preserve" xmlns="http://www.w3.org/2000/svg" xmlns:xlink="http://www.w3.org/1999/xlink">
<defs/>
<g id="Layer-1">
<g opacity="1">
<path d="M271.109 170.67L36.3472 483.093L98.9542 483.093L168.625 371.856L257.514 371.856L98.9542 786.587L898.74 756.499L893.767 756.499L898.74 756.499L168.129 756.499L145.991 756.499L357.738 170.67L271.109 170.67ZM284.166 215.708L285.462 215.708L263.369 336.437L215.425 336.437L284.166 215.708Z" fill="#000000" fill-rule="nonzero" opacity="1" stroke="none"/>
<path d="M389.602 366.098C387.253 363.04 384.2 360.543 380.443 358.606C376.686 356.67 372.259 355.701 367.163 355.701C362.474 355.701 358.118 357.077 354.096 359.829C350.073 362.582 347.624 366.608 346.748 371.908C346.04 376.189 346.818 379.502 349.08 381.847C351.343 384.191 355.467 386.994 361.451 390.256C365.361 392.498 369.034 394.945 372.47 397.595C375.905 400.245 378.814 403.303 381.197 406.769C383.581 410.235 385.319 414.21 386.412 418.695C387.506 423.18 387.598 428.175 386.688 433.679C384.969 444.076 381.626 452.893 376.658 460.13C371.691 467.367 365.931 473.228 359.38 477.713C352.828 482.198 345.825 485.409 338.369 487.346C330.914 489.282 323.823 490.251 317.095 490.251C306.698 490.251 297.114 488.416 288.343 484.747C279.572 481.077 272.736 476.184 267.835 470.068L297.355 441.324C300.351 445.401 304.033 448.714 308.403 451.262C312.773 453.81 317.608 455.084 322.908 455.084C327.801 455.084 332.318 453.657 336.459 450.803C340.6 447.949 343.109 443.872 343.985 438.572C344.76 433.883 343.574 429.958 340.427 426.798C337.28 423.639 332.714 420.428 326.729 417.166C322.955 415.331 319.538 413.191 316.476 410.744C313.415 408.298 310.829 405.444 308.718 402.182C306.607 398.92 305.132 395.2 304.294 391.02C303.456 386.841 303.492 382 304.401 376.495C306.019 366.71 309.295 358.3 314.229 351.267C319.163 344.234 324.948 338.526 331.585 334.143C338.221 329.76 345.326 326.549 352.901 324.51C360.475 322.472 367.727 321.452 374.659 321.452C384.036 321.452 392.516 322.879 400.096 325.733C407.677 328.587 413.527 332.359 417.644 337.048L389.602 366.098Z" fill="#000000" fill-rule="nonzero" opacity="1" stroke="none"/>
<path d="M507.758 304.657L469.731 427.257C469.053 428.888 468.444 430.723 467.903 432.761C467.363 434.8 466.991 436.431 466.789 437.654C465.306 446.624 468.948 451.109 477.714 451.109C479.345 451.109 481.213 450.905 483.319 450.498C485.425 450.09 487.226 449.682 488.72 449.274L477.299 483.218C474.209 484.645 470.397 485.817 465.862 486.734C461.328 487.652 457.124 488.11 453.25 488.11C439.999 488.11 430.583 484.95 425.002 478.631C419.421 472.311 417.557 463.545 419.411 452.332C419.714 450.498 420.17 448.357 420.778 445.911C421.386 443.464 422.097 441.018 422.909 438.572L464.336 304.657L476.365 268.879L489.512 230.043L532.629 230.043L519.177 268.879L507.758 304.657Z" fill="#000000" fill-rule="nonzero" opacity="1" stroke="none"/>
<path d="M640.766 367.627C639.61 367.219 638.336 366.914 636.942 366.71C635.549 366.506 633.731 366.404 631.489 366.404C627.411 366.404 623.403 367.525 619.465 369.768C615.527 372.01 611.827 374.966 608.367 378.636C604.906 382.305 601.752 386.586 598.905 391.479C596.057 396.372 593.805 401.367 592.147 406.463L565.345 485.358L520.393 485.358L561.358 365.181C562.17 362.734 563.194 359.626 564.429 355.854C565.664 352.083 566.899 348.311 568.134 344.54C569.369 340.768 570.459 337.252 571.406 333.99C572.353 330.728 573.08 328.18 573.587 326.345L615.481 326.345C615.245 327.772 614.772 329.709 614.062 332.155C613.352 334.601 612.625 337.15 611.881 339.8C611.137 342.45 610.351 345.049 609.522 347.598C608.693 350.146 608.042 352.236 607.568 353.866L608.486 353.866C620.824 332.257 634.943 321.452 650.845 321.452C654.31 321.452 656.808 321.758 658.338 322.37L640.766 367.627Z" fill="#000000" fill-rule="nonzero" opacity="1" stroke="none"/>
<path d="M789.795 383.223C787.503 397.085 783.563 410.438 777.975 423.282C772.386 436.125 765.513 447.491 757.355 457.378C749.197 467.265 739.728 475.216 728.949 481.23C718.169 487.244 706.561 490.251 694.126 490.251C676.39 490.251 663.564 484.594 655.649 473.279C647.734 461.965 645.326 446.93 648.426 428.175C650.684 414.516 654.658 401.265 660.349 388.421C666.039 375.578 673.074 364.162 681.452 354.172C689.831 344.183 699.402 336.232 710.164 330.32C720.927 324.408 732.424 321.452 744.656 321.452C762.188 321.452 774.861 327.109 782.674 338.424C790.488 349.738 792.861 364.671 789.795 383.223ZM746.071 386.892C747.419 378.738 747.232 372.163 745.509 367.169C743.786 362.174 740.071 359.677 734.363 359.677C729.266 359.677 724.41 361.919 719.796 366.404C715.181 370.889 711.052 376.444 707.408 383.07C703.765 389.695 700.649 396.831 698.06 404.475C695.471 412.12 693.671 419.001 692.66 425.117C691.346 433.067 691.457 439.489 692.993 444.382C694.528 449.274 698.15 451.721 703.858 451.721C708.955 451.721 713.853 449.529 718.553 445.146C723.253 440.763 727.467 435.31 731.196 428.786C734.924 422.263 738.074 415.229 740.646 407.686C743.218 400.143 745.026 393.212 746.071 386.892Z" fill="#000000" fill-rule="nonzero" opacity="1" stroke="none"/>
<path d="M350.944 630.59C348.653 644.453 344.713 657.806 339.124 670.649C333.536 683.493 326.663 694.858 318.505 704.745C310.347 714.633 300.878 722.583 290.098 728.597C279.319 734.611 267.711 737.618 255.276 737.618C237.54 737.618 224.714 731.961 216.799 720.647C208.884 709.332 206.476 694.297 209.576 675.542C211.834 661.883 215.808 648.632 221.499 635.789C227.189 622.945 234.224 611.529 242.602 601.54C250.981 591.55 260.552 583.6 271.314 577.688C282.077 571.776 293.574 568.82 305.806 568.82C323.338 568.82 336.011 574.477 343.824 585.791C351.638 597.106 354.011 612.039 350.944 630.59ZM307.221 634.26C308.569 626.105 308.381 619.531 306.659 614.536C304.936 609.541 301.221 607.044 295.512 607.044C290.416 607.044 285.56 609.286 280.945 613.771C276.331 618.256 272.202 623.812 268.558 630.437C264.915 637.063 261.799 644.198 259.21 651.843C256.621 659.488 254.821 666.368 253.81 672.484C252.496 680.435 252.607 686.856 254.142 691.749C255.678 696.642 259.3 699.088 265.008 699.088C270.105 699.088 275.003 696.897 279.703 692.514C284.403 688.13 288.617 682.677 292.345 676.154C296.074 669.63 299.224 662.597 301.796 655.054C304.368 647.511 306.176 640.579 307.221 634.26Z" fill="#000000" fill-rule="nonzero" opacity="1" stroke="none"/>
<path d="M493.261 722.94C488.929 735.58 468.943 794.21 463.282 804.403C457.622 814.596 450.983 823.311 443.365 830.548C435.747 837.785 427.023 843.391 417.192 847.367C407.361 851.342 396.228 853.33 383.792 853.33C373.191 853.33 363.327 851.342 354.198 847.367C345.07 843.391 337.936 838.448 332.798 832.536L362.465 799.204C365.868 803.281 370.001 806.645 374.864 809.295C379.726 811.946 385.419 813.271 391.943 813.271C397.039 813.271 401.735 812.302 406.031 810.366C410.326 808.429 414.179 805.779 417.589 802.415C420.999 799.051 424.051 795.076 426.746 790.489C429.441 785.902 431.753 780.856 433.682 775.352L454.359 712.237L453.747 712.237C449.271 718.353 443.748 723.705 437.18 728.291C430.612 732.878 422.537 735.172 412.955 735.172C406.024 735.172 400.187 733.796 395.443 731.044C390.699 728.291 386.965 724.367 384.24 719.271C381.515 714.174 379.85 708.211 379.246 701.382C378.642 694.552 379.031 686.958 380.413 678.6C382.434 666.368 386.002 653.729 391.114 640.681C396.227 627.634 402.513 615.81 409.974 605.209C417.434 594.608 425.908 585.893 435.395 579.064C444.883 572.234 455.131 568.82 466.139 568.82C475.313 568.82 482.163 571.164 486.688 575.853C491.213 580.542 493.532 586.25 493.643 592.977L494.866 592.977L501.414 573.712L543.92 573.712L493.261 722.94ZM479.735 634.565C481.083 626.411 480.904 619.785 479.198 614.689C477.493 609.592 473.786 607.044 468.077 607.044C462.981 607.044 458.125 609.286 453.51 613.771C448.896 618.256 444.716 623.812 440.97 630.437C437.225 637.063 434.058 644.198 431.469 651.843C428.88 659.488 427.064 666.47 426.019 672.79C424.738 680.537 424.917 686.856 426.555 691.749C428.192 696.642 431.967 699.088 437.879 699.088C442.976 699.088 447.823 696.897 452.421 692.514C457.019 688.13 461.182 682.677 464.91 676.154C468.639 669.63 471.789 662.597 474.361 655.054C476.933 647.511 478.724 640.681 479.735 634.565Z" fill="#000000" fill-rule="nonzero" opacity="1" stroke="none"/>
<path d="M646.57 525.397C645.896 529.474 644.55 533.296 642.534 536.864C640.517 540.432 638.066 543.541 635.182 546.191C632.298 548.841 629.047 550.931 625.431 552.46C621.814 553.989 618.069 554.753 614.196 554.753C607.061 554.753 601.935 552.46 598.82 547.873C595.705 543.286 594.636 538.036 595.613 532.124C596.253 528.251 597.531 524.53 599.446 520.963C601.361 517.395 603.769 514.235 606.67 511.483C609.571 508.731 612.788 506.539 616.319 504.909C619.85 503.278 623.553 502.462 627.426 502.462C634.765 502.462 640.06 504.654 643.311 509.037C646.562 513.42 647.648 518.873 646.57 525.397ZM574.687 732.726L530.041 732.726L583.846 573.712L628.492 573.712L574.687 732.726Z" fill="#000000" fill-rule="nonzero" opacity="1" stroke="none"/>
<path d="M745.385 615.912C744.058 614.077 742.374 612.548 740.333 611.325C738.293 610.102 735.336 609.49 731.463 609.49C726.57 609.49 721.816 611.427 717.2 615.3C712.585 619.174 708.421 624.016 704.708 629.826C700.996 635.636 697.836 642.108 695.23 649.244C692.623 656.379 690.798 663.106 689.753 669.426C688.338 677.988 688.712 684.665 690.876 689.456C693.041 694.246 697.384 696.642 703.908 696.642C707.17 696.642 710.168 696.081 712.901 694.96C715.635 693.839 718.36 692.463 721.076 690.832L726.883 725.998C722.029 729.464 716.265 732.267 709.592 734.407C702.918 736.548 695.81 737.618 688.267 737.618C678.889 737.618 671.106 735.987 664.918 732.726C658.729 729.464 653.916 724.979 650.476 719.271C647.036 713.562 644.929 706.886 644.154 699.241C643.379 691.596 643.716 683.391 645.165 674.625C647.288 661.781 651.119 649.091 656.657 636.553C662.195 624.016 669.111 612.701 677.404 602.61C685.698 592.519 695.047 584.364 705.453 578.146C715.858 571.929 727.075 568.82 739.103 568.82C748.888 568.82 756.433 570.043 761.737 572.489C767.041 574.936 771.156 577.79 774.082 581.051L745.385 615.912Z" fill="#000000" fill-rule="nonzero" opacity="1" stroke="none"/>
<path d="M869.53 613.466C867.181 610.408 864.128 607.91 860.371 605.974C856.614 604.037 852.187 603.069 847.091 603.069C842.402 603.069 838.046 604.445 834.024 607.197C830.001 609.949 827.552 613.975 826.676 619.276C825.968 623.557 826.746 626.87 829.008 629.214C831.271 631.558 835.395 634.362 841.379 637.623C845.289 639.866 848.962 642.312 852.398 644.962C855.833 647.613 858.742 650.671 861.125 654.136C863.509 657.602 865.247 661.577 866.34 666.062C867.434 670.547 867.525 675.542 866.616 681.046C864.897 691.443 861.554 700.26 856.586 707.497C851.618 714.735 845.859 720.596 839.307 725.081C832.756 729.566 825.753 732.776 818.297 734.713C810.842 736.65 803.751 737.618 797.023 737.618C786.626 737.618 777.042 735.783 768.271 732.114C759.5 728.444 752.664 723.552 747.762 717.436L777.283 688.691C780.279 692.768 783.961 696.081 788.331 698.629C792.7 701.178 797.535 702.452 802.836 702.452C807.729 702.452 812.246 701.025 816.387 698.171C820.528 695.317 823.037 691.239 823.913 685.939C824.688 681.25 823.502 677.326 820.355 674.166C817.208 671.006 812.642 667.795 806.657 664.533C802.883 662.699 799.466 660.558 796.404 658.112C793.343 655.665 790.757 652.811 788.646 649.549C786.535 646.288 785.06 642.567 784.222 638.388C783.384 634.209 783.42 629.367 784.329 623.863C785.947 614.077 789.223 605.668 794.157 598.635C799.091 591.601 804.876 585.893 811.512 581.51C818.149 577.127 825.254 573.916 832.828 571.878C840.403 569.839 847.655 568.82 854.587 568.82C863.964 568.82 872.444 570.247 880.024 573.101C887.605 575.955 893.454 579.726 897.572 584.415L869.53 613.466Z" fill="#000000" fill-rule="nonzero" opacity="1" stroke="none"/>
<path d="M293.45 170.67C293.45 170.67 279.437 233.288 298.651 262.38C317.865 291.472 894.655 287.038 894.655 287.038C894.655 287.038 318.836 285.6 290.004 314.691C261.172 343.783 254.98 403.405 254.98 403.405C254.98 403.405 269.708 343.783 250.494 314.691C231.279 285.6 178.123 287.038 178.123 287.038C178.123 287.038 230.309 291.472 259.14 262.38C287.972 233.288 293.45 170.67 293.45 170.67Z" fill="#fddf19" fill-rule="nonzero" opacity="1" stroke="#000000" stroke-linecap="butt" stroke-linejoin="round" stroke-opacity="0.997962" stroke-width="5"/>
</g>
</g>
</svg>
