<?xml version="1.0" encoding="UTF-8" standalone="no"?>
<!DOCTYPE svg PUBLIC "-//W3C//DTD SVG 1.1//EN"
 "http://www.w3.org/Graphics/SVG/1.1/DTD/svg11.dtd">
<!-- Generated by graphviz version 2.43.0 (0)
 -->
<!-- Title: %3 Pages: 1 -->
<svg width="435pt" height="500pt"
 viewBox="0.00 0.00 434.94 500.00" xmlns="http://www.w3.org/2000/svg" xmlns:xlink="http://www.w3.org/1999/xlink">
<g id="graph0" class="graph" transform="scale(1 1) rotate(0) translate(4 496)">
<title>%3</title>
<polygon fill="white" stroke="transparent" points="-4,4 -4,-496 430.94,-496 430.94,4 -4,4"/>
<!-- Pax6 -->
<g id="node1" class="node">
<title>Pax6</title>
<ellipse fill="none" stroke="black" cx="95.55" cy="-474" rx="33.29" ry="18"/>
<text text-anchor="middle" x="95.55" y="-470.3" font-family="Times,serif" font-size="14.00">Pax6</text>
</g>
<!-- Pax6&#45;&gt;Pax6 -->
<g id="edge1" class="edge">
<title>Pax6&#45;&gt;Pax6</title>
<path fill="none" stroke="black" d="M125.49,-481.84C137.07,-482.19 146.69,-479.58 146.69,-474 146.69,-470.17 142.15,-467.73 135.54,-466.7"/>
<polygon fill="black" stroke="black" points="135.67,-463.2 125.49,-466.16 135.29,-470.19 135.67,-463.2"/>
<text text-anchor="middle" x="153.19" y="-470.3" font-family="Times,serif" font-size="14.00">+</text>
</g>
<!-- Hes5 -->
<g id="node2" class="node">
<title>Hes5</title>
<ellipse fill="none" stroke="black" cx="152.55" cy="-387" rx="34.39" ry="18"/>
<text text-anchor="middle" x="152.55" y="-383.3" font-family="Times,serif" font-size="14.00">Hes5</text>
</g>
<!-- Pax6&#45;&gt;Hes5 -->
<g id="edge2" class="edge">
<title>Pax6&#45;&gt;Hes5</title>
<path fill="none" stroke="black" d="M106.54,-456.61C114.9,-444.15 126.54,-426.79 136.02,-412.65"/>
<polygon fill="black" stroke="black" points="138.93,-414.59 141.59,-404.34 133.11,-410.69 138.93,-414.59"/>
<text text-anchor="middle" x="134.05" y="-426.8" font-family="Times,serif" font-size="14.00">+</text>
</g>
<!-- Mash1 -->
<g id="node3" class="node">
<title>Mash1</title>
<ellipse fill="none" stroke="black" cx="82.55" cy="-300" rx="42.49" ry="18"/>
<text text-anchor="middle" x="82.55" y="-296.3" font-family="Times,serif" font-size="14.00">Mash1</text>
</g>
<!-- Pax6&#45;&gt;Mash1 -->
<g id="edge3" class="edge">
<title>Pax6&#45;&gt;Mash1</title>
<path fill="none" stroke="black" d="M94.25,-455.88C92,-426 87.32,-364.11 84.61,-328.27"/>
<polygon fill="black" stroke="black" points="88.08,-327.76 83.84,-318.05 81.1,-328.29 88.08,-327.76"/>
<text text-anchor="middle" x="97.05" y="-383.3" font-family="Times,serif" font-size="14.00">+</text>
</g>
<!-- Hes5&#45;&gt;Mash1 -->
<g id="edge4" class="edge">
<title>Hes5&#45;&gt;Mash1</title>
<path fill="none" stroke="black" d="M136.26,-370.88C130.14,-364.91 123.29,-357.85 117.55,-351 111.05,-343.25 104.53,-334.33 98.91,-326.18"/>
<polygon fill="black" stroke="black" points="101.7,-324.07 93.2,-317.74 95.9,-327.99 101.7,-324.07"/>
<text text-anchor="middle" x="120.05" y="-339.8" font-family="Times,serif" font-size="14.00">&#45;</text>
</g>
<!-- Scl -->
<g id="node4" class="node">
<title>Scl</title>
<ellipse fill="none" stroke="black" cx="218.55" cy="-300" rx="27" ry="18"/>
<text text-anchor="middle" x="218.55" y="-296.3" font-family="Times,serif" font-size="14.00">Scl</text>
</g>
<!-- Hes5&#45;&gt;Scl -->
<g id="edge5" class="edge">
<title>Hes5&#45;&gt;Scl</title>
<path fill="none" stroke="black" d="M164.96,-370.01C174.95,-357.15 189.13,-338.89 200.39,-324.38"/>
<polygon fill="black" stroke="black" points="203.26,-326.39 206.63,-316.34 197.74,-322.1 203.26,-326.39"/>
<text text-anchor="middle" x="196.05" y="-339.8" font-family="Times,serif" font-size="14.00">+</text>
</g>
<!-- Olig2 -->
<g id="node5" class="node">
<title>Olig2</title>
<ellipse fill="none" stroke="black" cx="186.55" cy="-213" rx="36" ry="18"/>
<text text-anchor="middle" x="186.55" y="-209.3" font-family="Times,serif" font-size="14.00">Olig2</text>
</g>
<!-- Hes5&#45;&gt;Olig2 -->
<g id="edge6" class="edge">
<title>Hes5&#45;&gt;Olig2</title>
<path fill="none" stroke="black" d="M154.89,-368.99C157.83,-348.33 163.26,-312.46 169.55,-282 172.37,-268.31 176.08,-253.22 179.32,-240.74"/>
<polygon fill="black" stroke="black" points="182.73,-241.52 181.89,-230.96 175.96,-239.74 182.73,-241.52"/>
<text text-anchor="middle" x="176.05" y="-296.3" font-family="Times,serif" font-size="14.00">+</text>
</g>
<!-- Stat3 -->
<g id="node6" class="node">
<title>Stat3</title>
<ellipse fill="none" stroke="black" cx="281.55" cy="-213" rx="36.29" ry="18"/>
<text text-anchor="middle" x="281.55" y="-209.3" font-family="Times,serif" font-size="14.00">Stat3</text>
</g>
<!-- Hes5&#45;&gt;Stat3 -->
<g id="edge7" class="edge">
<title>Hes5&#45;&gt;Stat3</title>
<path fill="none" stroke="black" d="M178.81,-375.21C202.22,-364.24 235.62,-345.01 254.55,-318 270.46,-295.29 277,-263.88 279.68,-241.54"/>
<polygon fill="black" stroke="black" points="283.19,-241.68 280.71,-231.37 276.22,-240.97 283.19,-241.68"/>
<text text-anchor="middle" x="277.05" y="-296.3" font-family="Times,serif" font-size="14.00">+</text>
</g>
<!-- Mash1&#45;&gt;Hes5 -->
<g id="edge8" class="edge">
<title>Mash1&#45;&gt;Hes5</title>
<path fill="none" stroke="black" d="M100.12,-316.71C106.22,-322.52 112.94,-329.32 118.55,-336 125.09,-343.79 131.55,-352.85 137.06,-361.11"/>
<polygon fill="black" stroke="black" points="134.23,-363.17 142.61,-369.64 140.09,-359.35 134.23,-363.17"/>
<text text-anchor="middle" x="133.05" y="-339.8" font-family="Times,serif" font-size="14.00">&#45;</text>
</g>
<!-- Zic1 -->
<g id="node7" class="node">
<title>Zic1</title>
<ellipse fill="none" stroke="black" cx="30.55" cy="-159" rx="30.59" ry="18"/>
<text text-anchor="middle" x="30.55" y="-155.3" font-family="Times,serif" font-size="14.00">Zic1</text>
</g>
<!-- Mash1&#45;&gt;Zic1 -->
<g id="edge9" class="edge">
<title>Mash1&#45;&gt;Zic1</title>
<path fill="none" stroke="black" d="M69.61,-282.6C65.62,-276.95 61.51,-270.42 58.55,-264 47.09,-239.16 39.59,-208.75 35.26,-187.25"/>
<polygon fill="black" stroke="black" points="38.65,-186.34 33.33,-177.18 31.77,-187.66 38.65,-186.34"/>
<text text-anchor="middle" x="65.05" y="-252.8" font-family="Times,serif" font-size="14.00">+</text>
</g>
<!-- Brn2 -->
<g id="node8" class="node">
<title>Brn2</title>
<ellipse fill="none" stroke="black" cx="90.55" cy="-105" rx="33.6" ry="18"/>
<text text-anchor="middle" x="90.55" y="-101.3" font-family="Times,serif" font-size="14.00">Brn2</text>
</g>
<!-- Mash1&#45;&gt;Brn2 -->
<g id="edge10" class="edge">
<title>Mash1&#45;&gt;Brn2</title>
<path fill="none" stroke="black" d="M83.26,-281.87C84.65,-248.32 87.74,-173.71 89.42,-133.29"/>
<polygon fill="black" stroke="black" points="92.92,-133.23 89.84,-123.09 85.93,-132.94 92.92,-133.23"/>
<text text-anchor="middle" x="94.05" y="-209.3" font-family="Times,serif" font-size="14.00">+</text>
</g>
<!-- Scl&#45;&gt;Olig2 -->
<g id="edge11" class="edge">
<title>Scl&#45;&gt;Olig2</title>
<path fill="none" stroke="black" d="M208.19,-283.1C204.74,-277.27 201.13,-270.51 198.55,-264 195.65,-256.7 193.33,-248.51 191.53,-240.9"/>
<polygon fill="black" stroke="black" points="194.93,-240.06 189.39,-231.03 188.09,-241.55 194.93,-240.06"/>
<text text-anchor="middle" x="201.05" y="-252.8" font-family="Times,serif" font-size="14.00">&#45;</text>
</g>
<!-- Scl&#45;&gt;Stat3 -->
<g id="edge12" class="edge">
<title>Scl&#45;&gt;Stat3</title>
<path fill="none" stroke="black" d="M229.76,-283.14C236.8,-273.26 246.11,-260.32 254.55,-249 257.18,-245.47 259.99,-241.76 262.76,-238.14"/>
<polygon fill="black" stroke="black" points="265.74,-240 269.07,-229.95 260.2,-235.73 265.74,-240"/>
<text text-anchor="middle" x="261.05" y="-252.8" font-family="Times,serif" font-size="14.00">+</text>
</g>
<!-- Olig2&#45;&gt;Scl -->
<g id="edge13" class="edge">
<title>Olig2&#45;&gt;Scl</title>
<path fill="none" stroke="black" d="M192.86,-230.76C197.37,-242.74 203.53,-259.1 208.68,-272.8"/>
<polygon fill="black" stroke="black" points="205.43,-274.08 212.23,-282.21 211.98,-271.61 205.43,-274.08"/>
<text text-anchor="middle" x="206.05" y="-252.8" font-family="Times,serif" font-size="14.00">&#45;</text>
</g>
<!-- Olig2&#45;&gt;Brn2 -->
<g id="edge16" class="edge">
<title>Olig2&#45;&gt;Brn2</title>
<path fill="none" stroke="black" d="M172.38,-196.36C156.36,-178.67 130.1,-149.67 111.66,-129.31"/>
<polygon fill="black" stroke="black" points="114.08,-126.77 104.77,-121.7 108.89,-131.47 114.08,-126.77"/>
<text text-anchor="middle" x="156.05" y="-155.3" font-family="Times,serif" font-size="14.00">&#45;</text>
</g>
<!-- Myt1L -->
<g id="node10" class="node">
<title>Myt1L</title>
<ellipse fill="none" stroke="black" cx="183.55" cy="-105" rx="40.89" ry="18"/>
<text text-anchor="middle" x="183.55" y="-101.3" font-family="Times,serif" font-size="14.00">Myt1L</text>
</g>
<!-- Olig2&#45;&gt;Myt1L -->
<g id="edge14" class="edge">
<title>Olig2&#45;&gt;Myt1L</title>
<path fill="none" stroke="black" d="M186.07,-194.97C185.6,-178.38 184.87,-152.88 184.32,-133.43"/>
<polygon fill="black" stroke="black" points="187.82,-133.24 184.04,-123.34 180.82,-133.44 187.82,-133.24"/>
<text text-anchor="middle" x="192.05" y="-155.3" font-family="Times,serif" font-size="14.00">+</text>
</g>
<!-- Sox8 -->
<g id="node11" class="node">
<title>Sox8</title>
<ellipse fill="none" stroke="black" cx="276.55" cy="-105" rx="33.6" ry="18"/>
<text text-anchor="middle" x="276.55" y="-101.3" font-family="Times,serif" font-size="14.00">Sox8</text>
</g>
<!-- Olig2&#45;&gt;Sox8 -->
<g id="edge15" class="edge">
<title>Olig2&#45;&gt;Sox8</title>
<path fill="none" stroke="black" d="M200.22,-195.9C215.17,-178.29 239.29,-149.88 256.41,-129.72"/>
<polygon fill="black" stroke="black" points="259.24,-131.79 263.04,-121.9 253.9,-127.26 259.24,-131.79"/>
<text text-anchor="middle" x="251.05" y="-155.3" font-family="Times,serif" font-size="14.00">+</text>
</g>
<!-- Aldh1L1 -->
<g id="node12" class="node">
<title>Aldh1L1</title>
<ellipse fill="none" stroke="black" cx="377.55" cy="-105" rx="49.29" ry="18"/>
<text text-anchor="middle" x="377.55" y="-101.3" font-family="Times,serif" font-size="14.00">Aldh1L1</text>
</g>
<!-- Stat3&#45;&gt;Aldh1L1 -->
<g id="edge17" class="edge">
<title>Stat3&#45;&gt;Aldh1L1</title>
<path fill="none" stroke="black" d="M295.71,-196.36C311.55,-178.87 337.39,-150.34 355.8,-130.02"/>
<polygon fill="black" stroke="black" points="358.57,-132.16 362.69,-122.4 353.38,-127.47 358.57,-132.16"/>
<text text-anchor="middle" x="350.05" y="-155.3" font-family="Times,serif" font-size="14.00">+</text>
</g>
<!-- Tuj1 -->
<g id="node9" class="node">
<title>Tuj1</title>
<ellipse fill="none" stroke="black" cx="90.55" cy="-18" rx="31.4" ry="18"/>
<text text-anchor="middle" x="90.55" y="-14.3" font-family="Times,serif" font-size="14.00">Tuj1</text>
</g>
<!-- Zic1&#45;&gt;Tuj1 -->
<g id="edge18" class="edge">
<title>Zic1&#45;&gt;Tuj1</title>
<path fill="none" stroke="black" d="M28.61,-141.02C27.59,-126.23 27.72,-104.48 34.55,-87 41.46,-69.31 54.85,-52.77 66.8,-40.44"/>
<polygon fill="black" stroke="black" points="69.34,-42.85 73.99,-33.33 64.42,-37.88 69.34,-42.85"/>
<text text-anchor="middle" x="41.05" y="-101.3" font-family="Times,serif" font-size="14.00">+</text>
</g>
<!-- Brn2&#45;&gt;Tuj1 -->
<g id="edge19" class="edge">
<title>Brn2&#45;&gt;Tuj1</title>
<path fill="none" stroke="black" d="M90.55,-86.8C90.55,-75.16 90.55,-59.55 90.55,-46.24"/>
<polygon fill="black" stroke="black" points="94.05,-46.18 90.55,-36.18 87.05,-46.18 94.05,-46.18"/>
<text text-anchor="middle" x="97.05" y="-57.8" font-family="Times,serif" font-size="14.00">+</text>
</g>
<!-- Myt1L&#45;&gt;Tuj1 -->
<g id="edge20" class="edge">
<title>Myt1L&#45;&gt;Tuj1</title>
<path fill="none" stroke="black" d="M166.49,-88.41C151.8,-74.98 130.45,-55.47 114.12,-40.55"/>
<polygon fill="black" stroke="black" points="116.31,-37.8 106.56,-33.64 111.58,-42.97 116.31,-37.8"/>
<text text-anchor="middle" x="150.05" y="-57.8" font-family="Times,serif" font-size="14.00">+</text>
</g>
</g>
</svg>
