<?xml version="1.0" encoding="UTF-8" standalone="no"?>
<!DOCTYPE svg PUBLIC "-//W3C//DTD SVG 1.1//EN"
 "http://www.w3.org/Graphics/SVG/1.1/DTD/svg11.dtd">
<!-- Generated by graphviz version 2.43.0 (0)
 -->
<!-- Title: %3 Pages: 1 -->
<svg width="552pt" height="740pt"
 viewBox="0.00 0.00 552.00 740.00" xmlns="http://www.w3.org/2000/svg" xmlns:xlink="http://www.w3.org/1999/xlink">
<g id="graph0" class="graph" transform="scale(1 1) rotate(0) translate(4 736)">
<title>%3</title>
<polygon fill="white" stroke="transparent" points="-4,4 -4,-736 548,-736 548,4 -4,4"/>
<!-- Egr1 -->
<g id="node1" class="node">
<title>Egr1</title>
<ellipse fill="none" stroke="black" cx="458" cy="-714" rx="33.6" ry="18"/>
<text text-anchor="middle" x="458" y="-710.3" font-family="Times,serif" font-size="14.00">Egr1</text>
</g>
<!-- Gata2 -->
<g id="node2" class="node">
<title>Gata2</title>
<ellipse fill="none" stroke="black" cx="211" cy="-627" rx="38.19" ry="18"/>
<text text-anchor="middle" x="211" y="-623.3" font-family="Times,serif" font-size="14.00">Gata2</text>
</g>
<!-- Egr1&#45;&gt;Gata2 -->
<g id="edge1" class="edge">
<title>Egr1&#45;&gt;Gata2</title>
<path fill="none" stroke="black" d="M430,-703.54C409.28,-696.53 380.36,-686.71 355,-678 319.63,-665.85 279.42,-651.87 250.5,-641.79"/>
<polygon fill="black" stroke="black" points="251.36,-638.39 240.77,-638.4 249.06,-645 251.36,-638.39"/>
<text text-anchor="middle" x="361.5" y="-666.8" font-family="Times,serif" font-size="14.00">+</text>
</g>
<!-- Junb -->
<g id="node3" class="node">
<title>Junb</title>
<ellipse fill="none" stroke="black" cx="481" cy="-105" rx="31.7" ry="18"/>
<text text-anchor="middle" x="481" y="-101.3" font-family="Times,serif" font-size="14.00">Junb</text>
</g>
<!-- Egr1&#45;&gt;Junb -->
<g id="edge2" class="edge">
<title>Egr1&#45;&gt;Junb</title>
<path fill="none" stroke="black" d="M469.07,-696.88C479.33,-680.35 493,-653.53 493,-628 493,-628 493,-628 493,-191 493,-171.56 489.89,-149.87 486.83,-133.26"/>
<polygon fill="black" stroke="black" points="490.21,-132.3 484.86,-123.16 483.34,-133.64 490.21,-132.3"/>
<text text-anchor="middle" x="499.5" y="-405.8" font-family="Times,serif" font-size="14.00">+</text>
</g>
<!-- Gata2&#45;&gt;Egr1 -->
<g id="edge4" class="edge">
<title>Gata2&#45;&gt;Egr1</title>
<path fill="none" stroke="black" d="M247.4,-633.07C279.78,-638.28 328.06,-647.82 368,-663 389.29,-671.09 411.68,-683.51 428.8,-693.95"/>
<polygon fill="black" stroke="black" points="427.39,-697.2 437.73,-699.51 431.09,-691.25 427.39,-697.2"/>
<text text-anchor="middle" x="404.5" y="-666.8" font-family="Times,serif" font-size="14.00">+</text>
</g>
<!-- Gata2&#45;&gt;Gata2 -->
<g id="edge6" class="edge">
<title>Gata2&#45;&gt;Gata2</title>
<path fill="none" stroke="black" d="M245.66,-634.87C257.66,-634.96 267.35,-632.33 267.35,-627 267.35,-623.33 262.77,-620.95 256.01,-619.84"/>
<polygon fill="black" stroke="black" points="255.88,-616.33 245.66,-619.13 255.4,-623.31 255.88,-616.33"/>
<text text-anchor="middle" x="273.85" y="-623.3" font-family="Times,serif" font-size="14.00">+</text>
</g>
<!-- Cebpa -->
<g id="node10" class="node">
<title>Cebpa</title>
<ellipse fill="none" stroke="black" cx="112" cy="-279" rx="40.09" ry="18"/>
<text text-anchor="middle" x="112" y="-275.3" font-family="Times,serif" font-size="14.00">Cebpa</text>
</g>
<!-- Gata2&#45;&gt;Cebpa -->
<g id="edge3" class="edge">
<title>Gata2&#45;&gt;Cebpa</title>
<path fill="none" stroke="black" d="M172.3,-626.89C111.39,-626.04 0,-614.46 0,-541 0,-541 0,-541 0,-365 0,-328.72 37.75,-305.92 69.42,-293.17"/>
<polygon fill="black" stroke="black" points="70.89,-296.35 79,-289.53 68.41,-289.81 70.89,-296.35"/>
<text text-anchor="middle" x="6.5" y="-449.3" font-family="Times,serif" font-size="14.00">+</text>
</g>
<!-- Spi1 -->
<g id="node11" class="node">
<title>Spi1</title>
<ellipse fill="none" stroke="black" cx="139" cy="-366" rx="31.7" ry="18"/>
<text text-anchor="middle" x="139" y="-362.3" font-family="Times,serif" font-size="14.00">Spi1</text>
</g>
<!-- Gata2&#45;&gt;Spi1 -->
<g id="edge8" class="edge">
<title>Gata2&#45;&gt;Spi1</title>
<path fill="none" stroke="black" d="M206.28,-609.01C194.05,-565.01 161.27,-447.11 146.45,-393.81"/>
<polygon fill="black" stroke="black" points="149.79,-392.75 143.74,-384.06 143.05,-394.63 149.79,-392.75"/>
<text text-anchor="middle" x="179.5" y="-492.8" font-family="Times,serif" font-size="14.00">&#45;</text>
</g>
<!-- Ikzf1 -->
<g id="node12" class="node">
<title>Ikzf1</title>
<ellipse fill="none" stroke="black" cx="103" cy="-540" rx="33.6" ry="18"/>
<text text-anchor="middle" x="103" y="-536.3" font-family="Times,serif" font-size="14.00">Ikzf1</text>
</g>
<!-- Gata2&#45;&gt;Ikzf1 -->
<g id="edge7" class="edge">
<title>Gata2&#45;&gt;Ikzf1</title>
<path fill="none" stroke="black" d="M180.9,-615.66C166.87,-609.86 150.54,-601.64 138,-591 129.84,-584.08 122.68,-574.84 116.99,-566.19"/>
<polygon fill="black" stroke="black" points="119.86,-564.18 111.62,-557.51 113.9,-567.86 119.86,-564.18"/>
<text text-anchor="middle" x="144.5" y="-579.8" font-family="Times,serif" font-size="14.00">+</text>
</g>
<!-- Gata1 -->
<g id="node13" class="node">
<title>Gata1</title>
<ellipse fill="none" stroke="black" cx="247" cy="-453" rx="38.19" ry="18"/>
<text text-anchor="middle" x="247" y="-449.3" font-family="Times,serif" font-size="14.00">Gata1</text>
</g>
<!-- Gata2&#45;&gt;Gata1 -->
<g id="edge5" class="edge">
<title>Gata2&#45;&gt;Gata1</title>
<path fill="none" stroke="black" d="M218.61,-609.17C220.94,-603.49 223.33,-597.06 225,-591 235.32,-553.7 241.35,-509.25 244.41,-481.32"/>
<polygon fill="black" stroke="black" points="247.92,-481.44 245.48,-471.13 240.96,-480.71 247.92,-481.44"/>
<text text-anchor="middle" x="245.5" y="-536.3" font-family="Times,serif" font-size="14.00">+</text>
</g>
<!-- Junb&#45;&gt;Egr1 -->
<g id="edge10" class="edge">
<title>Junb&#45;&gt;Egr1</title>
<path fill="none" stroke="black" d="M496.55,-121.04C511.22,-136.92 531,-163.44 531,-191 531,-628 531,-628 531,-628 531,-655.74 508.34,-678.96 488.27,-694.08"/>
<polygon fill="black" stroke="black" points="486.01,-691.39 479.9,-700.05 490.08,-697.09 486.01,-691.39"/>
<text text-anchor="middle" x="537.5" y="-405.8" font-family="Times,serif" font-size="14.00">+</text>
</g>
<!-- Fli1 -->
<g id="node9" class="node">
<title>Fli1</title>
<ellipse fill="none" stroke="black" cx="317" cy="-18" rx="28.7" ry="18"/>
<text text-anchor="middle" x="317" y="-14.3" font-family="Times,serif" font-size="14.00">Fli1</text>
</g>
<!-- Junb&#45;&gt;Fli1 -->
<g id="edge11" class="edge">
<title>Junb&#45;&gt;Fli1</title>
<path fill="none" stroke="black" d="M459.67,-91.42C441.79,-81.02 415.49,-66.06 392,-54 378.11,-46.87 362.51,-39.49 349.14,-33.36"/>
<polygon fill="black" stroke="black" points="350.41,-30.09 339.86,-29.13 347.51,-36.46 350.41,-30.09"/>
<text text-anchor="middle" x="425.5" y="-57.8" font-family="Times,serif" font-size="14.00">+</text>
</g>
<!-- CIPKIP -->
<g id="node14" class="node">
<title>CIPKIP</title>
<ellipse fill="none" stroke="black" cx="481" cy="-18" rx="44.39" ry="18"/>
<text text-anchor="middle" x="481" y="-14.3" font-family="Times,serif" font-size="14.00">CIPKIP</text>
</g>
<!-- Junb&#45;&gt;CIPKIP -->
<g id="edge9" class="edge">
<title>Junb&#45;&gt;CIPKIP</title>
<path fill="none" stroke="black" d="M481,-86.8C481,-75.16 481,-59.55 481,-46.24"/>
<polygon fill="black" stroke="black" points="484.5,-46.18 481,-36.18 477.5,-46.18 484.5,-46.18"/>
<text text-anchor="middle" x="487.5" y="-57.8" font-family="Times,serif" font-size="14.00">+</text>
</g>
<!-- Bclaf1 -->
<g id="node4" class="node">
<title>Bclaf1</title>
<ellipse fill="none" stroke="black" cx="165" cy="-105" rx="40.09" ry="18"/>
<text text-anchor="middle" x="165" y="-101.3" font-family="Times,serif" font-size="14.00">Bclaf1</text>
</g>
<!-- CDK46CycD -->
<g id="node5" class="node">
<title>CDK46CycD</title>
<ellipse fill="none" stroke="black" cx="120" cy="-18" rx="67.69" ry="18"/>
<text text-anchor="middle" x="120" y="-14.3" font-family="Times,serif" font-size="14.00">CDK46CycD</text>
</g>
<!-- Bclaf1&#45;&gt;CDK46CycD -->
<g id="edge12" class="edge">
<title>Bclaf1&#45;&gt;CDK46CycD</title>
<path fill="none" stroke="black" d="M156.11,-87.21C149.74,-75.18 141.04,-58.75 133.78,-45.03"/>
<polygon fill="black" stroke="black" points="136.8,-43.25 129.03,-36.05 130.61,-46.52 136.8,-43.25"/>
<text text-anchor="middle" x="152.5" y="-57.8" font-family="Times,serif" font-size="14.00">+</text>
</g>
<!-- Myc -->
<g id="node6" class="node">
<title>Myc</title>
<ellipse fill="none" stroke="black" cx="129" cy="-192" rx="30.59" ry="18"/>
<text text-anchor="middle" x="129" y="-188.3" font-family="Times,serif" font-size="14.00">Myc</text>
</g>
<!-- Bclaf1&#45;&gt;Myc -->
<g id="edge13" class="edge">
<title>Bclaf1&#45;&gt;Myc</title>
<path fill="none" stroke="black" d="M157.9,-122.76C152.83,-134.74 145.9,-151.1 140.1,-164.8"/>
<polygon fill="black" stroke="black" points="136.79,-163.63 136.11,-174.21 143.24,-166.36 136.79,-163.63"/>
<text text-anchor="middle" x="156.5" y="-144.8" font-family="Times,serif" font-size="14.00">+</text>
</g>
<!-- Myc&#45;&gt;Junb -->
<g id="edge16" class="edge">
<title>Myc&#45;&gt;Junb</title>
<path fill="none" stroke="black" d="M156.92,-184.26C219.37,-169.18 370.52,-132.68 442.13,-115.39"/>
<polygon fill="black" stroke="black" points="443.2,-118.73 452.1,-112.98 441.56,-111.92 443.2,-118.73"/>
<text text-anchor="middle" x="332.5" y="-144.8" font-family="Times,serif" font-size="14.00">+</text>
</g>
<!-- Myc&#45;&gt;Bclaf1 -->
<g id="edge14" class="edge">
<title>Myc&#45;&gt;Bclaf1</title>
<path fill="none" stroke="black" d="M125.27,-174.12C123.86,-164.1 123.54,-151.37 128,-141 130.09,-136.15 133.22,-131.66 136.78,-127.62"/>
<polygon fill="black" stroke="black" points="139.39,-129.97 144.03,-120.44 134.46,-124.99 139.39,-129.97"/>
<text text-anchor="middle" x="134.5" y="-144.8" font-family="Times,serif" font-size="14.00">+</text>
</g>
<!-- Myc&#45;&gt;CDK46CycD -->
<g id="edge15" class="edge">
<title>Myc&#45;&gt;CDK46CycD</title>
<path fill="none" stroke="black" d="M120.71,-174.45C114.45,-160.98 106.37,-141.27 103,-123 98.15,-96.72 104.37,-66.56 110.61,-45.51"/>
<polygon fill="black" stroke="black" points="113.95,-46.56 113.62,-35.97 107.27,-44.45 113.95,-46.56"/>
<text text-anchor="middle" x="109.5" y="-101.3" font-family="Times,serif" font-size="14.00">+</text>
</g>
<!-- Zfpm1 -->
<g id="node7" class="node">
<title>Zfpm1</title>
<ellipse fill="none" stroke="black" cx="424" cy="-366" rx="40.89" ry="18"/>
<text text-anchor="middle" x="424" y="-362.3" font-family="Times,serif" font-size="14.00">Zfpm1</text>
</g>
<!-- Zfpm1&#45;&gt;Gata2 -->
<g id="edge17" class="edge">
<title>Zfpm1&#45;&gt;Gata2</title>
<path fill="none" stroke="black" d="M419.35,-383.96C416.17,-394.01 411.37,-406.74 405,-417 356.77,-494.68 277.16,-569.05 236.55,-604.46"/>
<polygon fill="black" stroke="black" points="234.24,-601.83 228.97,-611.02 238.82,-607.13 234.24,-601.83"/>
<text text-anchor="middle" x="353.5" y="-492.8" font-family="Times,serif" font-size="14.00">&#45;</text>
</g>
<!-- Klf1 -->
<g id="node8" class="node">
<title>Klf1</title>
<ellipse fill="none" stroke="black" cx="259" cy="-105" rx="29.8" ry="18"/>
<text text-anchor="middle" x="259" y="-101.3" font-family="Times,serif" font-size="14.00">Klf1</text>
</g>
<!-- Klf1&#45;&gt;Fli1 -->
<g id="edge18" class="edge">
<title>Klf1&#45;&gt;Fli1</title>
<path fill="none" stroke="black" d="M258.94,-86.63C259.64,-76.43 261.87,-63.69 268,-54 272.7,-46.57 279.6,-40.25 286.75,-35.1"/>
<polygon fill="black" stroke="black" points="288.69,-38.02 295.14,-29.61 284.85,-32.16 288.69,-38.02"/>
<text text-anchor="middle" x="270.5" y="-57.8" font-family="Times,serif" font-size="14.00">&#45;</text>
</g>
<!-- Fli1&#45;&gt;Klf1 -->
<g id="edge20" class="edge">
<title>Fli1&#45;&gt;Klf1</title>
<path fill="none" stroke="black" d="M306.14,-34.92C297.57,-47.48 285.46,-65.23 275.66,-79.59"/>
<polygon fill="black" stroke="black" points="272.65,-77.78 269.91,-88.01 278.44,-81.72 272.65,-77.78"/>
<text text-anchor="middle" x="294.5" y="-57.8" font-family="Times,serif" font-size="14.00">&#45;</text>
</g>
<!-- Fli1&#45;&gt;Gata1 -->
<g id="edge19" class="edge">
<title>Fli1&#45;&gt;Gata1</title>
<path fill="none" stroke="black" d="M324.03,-35.75C347.49,-94.51 416.87,-294.39 331,-417 321.93,-429.95 307.11,-438.12 292.43,-443.28"/>
<polygon fill="black" stroke="black" points="291.38,-439.94 282.86,-446.25 293.45,-446.63 291.38,-439.94"/>
<text text-anchor="middle" x="378.5" y="-231.8" font-family="Times,serif" font-size="14.00">+</text>
</g>
<!-- Cebpa&#45;&gt;Myc -->
<g id="edge21" class="edge">
<title>Cebpa&#45;&gt;Myc</title>
<path fill="none" stroke="black" d="M115.44,-260.8C117.77,-249.16 120.89,-233.55 123.55,-220.24"/>
<polygon fill="black" stroke="black" points="127.04,-220.67 125.56,-210.18 120.17,-219.29 127.04,-220.67"/>
<text text-anchor="middle" x="128.5" y="-231.8" font-family="Times,serif" font-size="14.00">+</text>
</g>
<!-- Cebpa&#45;&gt;Spi1 -->
<g id="edge22" class="edge">
<title>Cebpa&#45;&gt;Spi1</title>
<path fill="none" stroke="black" d="M119.27,-296.93C121.58,-302.62 124.04,-309.03 126,-315 128.43,-322.38 130.7,-330.49 132.64,-337.99"/>
<polygon fill="black" stroke="black" points="129.25,-338.87 135.08,-347.72 136.04,-337.17 129.25,-338.87"/>
<text text-anchor="middle" x="137.5" y="-318.8" font-family="Times,serif" font-size="14.00">+</text>
</g>
<!-- Spi1&#45;&gt;Gata2 -->
<g id="edge25" class="edge">
<title>Spi1&#45;&gt;Gata2</title>
<path fill="none" stroke="black" d="M117.21,-379.24C108.54,-385.11 99.18,-392.85 93,-402 61.08,-449.23 36.81,-519.09 60,-558 81.7,-594.42 128.5,-611.44 164.28,-619.33"/>
<polygon fill="black" stroke="black" points="164.02,-622.85 174.52,-621.41 165.42,-615.99 164.02,-622.85"/>
<text text-anchor="middle" x="57.5" y="-492.8" font-family="Times,serif" font-size="14.00">&#45;</text>
</g>
<!-- Spi1&#45;&gt;Cebpa -->
<g id="edge23" class="edge">
<title>Spi1&#45;&gt;Cebpa</title>
<path fill="none" stroke="black" d="M122.57,-350.55C117.17,-344.77 111.83,-337.66 109,-330 106.38,-322.9 105.88,-314.86 106.37,-307.32"/>
<polygon fill="black" stroke="black" points="109.87,-307.52 107.6,-297.17 102.92,-306.68 109.87,-307.52"/>
<text text-anchor="middle" x="115.5" y="-318.8" font-family="Times,serif" font-size="14.00">+</text>
</g>
<!-- Spi1&#45;&gt;Spi1 -->
<g id="edge26" class="edge">
<title>Spi1&#45;&gt;Spi1</title>
<path fill="none" stroke="black" d="M167.69,-373.83C179.19,-374.27 188.85,-371.66 188.85,-366 188.85,-362.11 184.28,-359.66 177.69,-358.65"/>
<polygon fill="black" stroke="black" points="177.84,-355.16 167.69,-358.17 177.51,-362.15 177.84,-355.16"/>
<text text-anchor="middle" x="195.35" y="-362.3" font-family="Times,serif" font-size="14.00">+</text>
</g>
<!-- Spi1&#45;&gt;Gata1 -->
<g id="edge24" class="edge">
<title>Spi1&#45;&gt;Gata1</title>
<path fill="none" stroke="black" d="M162.33,-378.29C174.15,-384.52 188.41,-392.84 200,-402 209.73,-409.69 219.33,-419.4 227.28,-428.21"/>
<polygon fill="black" stroke="black" points="224.86,-430.75 234.08,-435.96 230.12,-426.14 224.86,-430.75"/>
<text text-anchor="middle" x="218.5" y="-405.8" font-family="Times,serif" font-size="14.00">&#45;</text>
</g>
<!-- Tal1 -->
<g id="node15" class="node">
<title>Tal1</title>
<ellipse fill="none" stroke="black" cx="205" cy="-279" rx="30.59" ry="18"/>
<text text-anchor="middle" x="205" y="-275.3" font-family="Times,serif" font-size="14.00">Tal1</text>
</g>
<!-- Spi1&#45;&gt;Tal1 -->
<g id="edge27" class="edge">
<title>Spi1&#45;&gt;Tal1</title>
<path fill="none" stroke="black" d="M151.41,-349.01C161.34,-336.23 175.4,-318.12 186.63,-303.65"/>
<polygon fill="black" stroke="black" points="189.5,-305.67 192.86,-295.63 183.97,-301.38 189.5,-305.67"/>
<text text-anchor="middle" x="178.5" y="-318.8" font-family="Times,serif" font-size="14.00">&#45;</text>
</g>
<!-- Ikzf1&#45;&gt;Cebpa -->
<g id="edge28" class="edge">
<title>Ikzf1&#45;&gt;Cebpa</title>
<path fill="none" stroke="black" d="M101.39,-521.85C98.5,-488.38 93.18,-412 98,-348 99.11,-333.21 100.04,-329.54 103,-315 103.54,-312.33 104.16,-309.55 104.82,-306.78"/>
<polygon fill="black" stroke="black" points="108.23,-307.56 107.26,-297.01 101.44,-305.86 108.23,-307.56"/>
<text text-anchor="middle" x="99.5" y="-405.8" font-family="Times,serif" font-size="14.00">&#45;</text>
</g>
<!-- Ikzf1&#45;&gt;Gata1 -->
<g id="edge29" class="edge">
<title>Ikzf1&#45;&gt;Gata1</title>
<path fill="none" stroke="black" d="M110.51,-521.96C116.1,-511.1 124.71,-497.52 136,-489 154.8,-474.82 179.48,-466.29 200.8,-461.22"/>
<polygon fill="black" stroke="black" points="201.63,-464.62 210.64,-459.05 200.12,-457.78 201.63,-464.62"/>
<text text-anchor="middle" x="138.5" y="-492.8" font-family="Times,serif" font-size="14.00">&#45;</text>
</g>
<!-- Gata1&#45;&gt;Gata2 -->
<g id="edge32" class="edge">
<title>Gata1&#45;&gt;Gata2</title>
<path fill="none" stroke="black" d="M240.63,-470.81C235.69,-484.43 229.04,-504.21 225,-522 219.16,-547.72 215.45,-577.61 213.32,-598.73"/>
<polygon fill="black" stroke="black" points="209.82,-598.61 212.36,-608.9 216.79,-599.28 209.82,-598.61"/>
<text text-anchor="middle" x="227.5" y="-536.3" font-family="Times,serif" font-size="14.00">&#45;</text>
</g>
<!-- Gata1&#45;&gt;Zfpm1 -->
<g id="edge36" class="edge">
<title>Gata1&#45;&gt;Zfpm1</title>
<path fill="none" stroke="black" d="M282.58,-446.26C307.85,-441.15 341.96,-432.08 369,-417 381.45,-410.06 393.4,-399.8 402.96,-390.37"/>
<polygon fill="black" stroke="black" points="405.6,-392.68 410.08,-383.08 400.59,-387.79 405.6,-392.68"/>
<text text-anchor="middle" x="394.5" y="-405.8" font-family="Times,serif" font-size="14.00">+</text>
</g>
<!-- Gata1&#45;&gt;Klf1 -->
<g id="edge33" class="edge">
<title>Gata1&#45;&gt;Klf1</title>
<path fill="none" stroke="black" d="M249.25,-434.94C249.93,-429.24 250.59,-422.86 251,-417 258.31,-312.41 259.13,-187.61 259.1,-133.39"/>
<polygon fill="black" stroke="black" points="262.6,-133.21 259.09,-123.22 255.6,-133.23 262.6,-133.21"/>
<text text-anchor="middle" x="264.5" y="-275.3" font-family="Times,serif" font-size="14.00">+</text>
</g>
<!-- Gata1&#45;&gt;Fli1 -->
<g id="edge30" class="edge">
<title>Gata1&#45;&gt;Fli1</title>
<path fill="none" stroke="black" d="M269.15,-438.01C289.66,-423.14 317,-397.59 317,-367 317,-367 317,-367 317,-104 317,-84.75 317,-63.05 317,-46.4"/>
<polygon fill="black" stroke="black" points="320.5,-46.26 317,-36.26 313.5,-46.26 320.5,-46.26"/>
<text text-anchor="middle" x="323.5" y="-231.8" font-family="Times,serif" font-size="14.00">+</text>
</g>
<!-- Gata1&#45;&gt;Spi1 -->
<g id="edge34" class="edge">
<title>Gata1&#45;&gt;Spi1</title>
<path fill="none" stroke="black" d="M226.7,-437.64C218.07,-431.42 207.95,-423.98 199,-417 187.16,-407.76 174.33,-397.16 163.59,-388.1"/>
<polygon fill="black" stroke="black" points="165.72,-385.32 155.83,-381.52 161.19,-390.66 165.72,-385.32"/>
<text text-anchor="middle" x="201.5" y="-405.8" font-family="Times,serif" font-size="14.00">&#45;</text>
</g>
<!-- Gata1&#45;&gt;Gata1 -->
<g id="edge31" class="edge">
<title>Gata1&#45;&gt;Gata1</title>
<path fill="none" stroke="black" d="M281.66,-460.87C293.66,-460.96 303.35,-458.33 303.35,-453 303.35,-449.33 298.77,-446.95 292.01,-445.84"/>
<polygon fill="black" stroke="black" points="291.88,-442.33 281.66,-445.13 291.4,-449.31 291.88,-442.33"/>
<text text-anchor="middle" x="309.85" y="-449.3" font-family="Times,serif" font-size="14.00">+</text>
</g>
<!-- Gata1&#45;&gt;Tal1 -->
<g id="edge35" class="edge">
<title>Gata1&#45;&gt;Tal1</title>
<path fill="none" stroke="black" d="M242.82,-434.88C235.49,-404.87 220.28,-342.58 211.55,-306.81"/>
<polygon fill="black" stroke="black" points="214.94,-305.94 209.16,-297.05 208.14,-307.6 214.94,-305.94"/>
<text text-anchor="middle" x="237.5" y="-362.3" font-family="Times,serif" font-size="14.00">+</text>
</g>
</g>
</svg>
