<?xml version="1.0" encoding="UTF-8" standalone="no"?>
<!DOCTYPE svg PUBLIC "-//W3C//DTD SVG 1.1//EN"
 "http://www.w3.org/Graphics/SVG/1.1/DTD/svg11.dtd">
<!-- Generated by graphviz version 2.43.0 (0)
 -->
<!-- Title: %3 Pages: 1 -->
<svg width="409pt" height="740pt"
 viewBox="0.00 0.00 408.90 740.00" xmlns="http://www.w3.org/2000/svg" xmlns:xlink="http://www.w3.org/1999/xlink">
<g id="graph0" class="graph" transform="scale(1 1) rotate(0) translate(4 736)">
<title>%3</title>
<polygon fill="white" stroke="transparent" points="-4,4 -4,-736 404.9,-736 404.9,4 -4,4"/>
<!-- x0 -->
<g id="node1" class="node">
<title>x0</title>
<ellipse fill="none" stroke="black" cx="305.95" cy="-714" rx="27" ry="18"/>
<text text-anchor="middle" x="305.95" y="-710.3" font-family="Times,serif" font-size="14.00">x0</text>
</g>
<!-- x1 -->
<g id="node2" class="node">
<title>x1</title>
<ellipse fill="none" stroke="black" cx="45.95" cy="-366" rx="27" ry="18"/>
<text text-anchor="middle" x="45.95" y="-362.3" font-family="Times,serif" font-size="14.00">x1</text>
</g>
<!-- x0&#45;&gt;x1 -->
<g id="edge3" class="edge">
<title>x0&#45;&gt;x1</title>
<path fill="none" stroke="black" d="M279.32,-710.73C208.87,-704.01 22.95,-681.22 22.95,-628 22.95,-628 22.95,-628 22.95,-452 22.95,-431.74 29.11,-409.69 35.05,-393.12"/>
<polygon fill="black" stroke="black" points="38.4,-394.17 38.67,-383.58 31.85,-391.69 38.4,-394.17"/>
<text text-anchor="middle" x="25.45" y="-536.3" font-family="Times,serif" font-size="14.00">&#45;</text>
</g>
<!-- x17 -->
<g id="node9" class="node">
<title>x17</title>
<ellipse fill="none" stroke="black" cx="371.95" cy="-627" rx="27.9" ry="18"/>
<text text-anchor="middle" x="371.95" y="-623.3" font-family="Times,serif" font-size="14.00">x17</text>
</g>
<!-- x0&#45;&gt;x17 -->
<g id="edge1" class="edge">
<title>x0&#45;&gt;x17</title>
<path fill="none" stroke="black" d="M317.75,-697.8C327.73,-684.95 342.19,-666.32 353.67,-651.54"/>
<polygon fill="black" stroke="black" points="356.66,-653.4 360.03,-643.35 351.13,-649.1 356.66,-653.4"/>
<text text-anchor="middle" x="349.45" y="-666.8" font-family="Times,serif" font-size="14.00">+</text>
</g>
<!-- x9 -->
<g id="node20" class="node">
<title>x9</title>
<ellipse fill="none" stroke="black" cx="253.95" cy="-627" rx="27" ry="18"/>
<text text-anchor="middle" x="253.95" y="-623.3" font-family="Times,serif" font-size="14.00">x9</text>
</g>
<!-- x0&#45;&gt;x9 -->
<g id="edge2" class="edge">
<title>x0&#45;&gt;x9</title>
<path fill="none" stroke="black" d="M296.17,-697.01C288.54,-684.55 277.81,-667.01 269.08,-652.74"/>
<polygon fill="black" stroke="black" points="271.89,-650.62 263.68,-643.92 265.92,-654.27 271.89,-650.62"/>
<text text-anchor="middle" x="290.45" y="-666.8" font-family="Times,serif" font-size="14.00">+</text>
</g>
<!-- x1&#45;&gt;x1 -->
<g id="edge6" class="edge">
<title>x1&#45;&gt;x1</title>
<path fill="none" stroke="black" d="M70.48,-373.75C81.46,-374.49 90.95,-371.91 90.95,-366 90.95,-362.03 86.66,-359.56 80.52,-358.59"/>
<polygon fill="black" stroke="black" points="80.59,-355.09 70.48,-358.25 80.35,-362.09 80.59,-355.09"/>
<text text-anchor="middle" x="97.45" y="-362.3" font-family="Times,serif" font-size="14.00">+</text>
</g>
<!-- x13 -->
<g id="node6" class="node">
<title>x13</title>
<ellipse fill="none" stroke="black" cx="27.95" cy="-279" rx="27.9" ry="18"/>
<text text-anchor="middle" x="27.95" y="-275.3" font-family="Times,serif" font-size="14.00">x13</text>
</g>
<!-- x1&#45;&gt;x13 -->
<g id="edge5" class="edge">
<title>x1&#45;&gt;x13</title>
<path fill="none" stroke="black" d="M42.3,-347.8C39.82,-336.09 36.49,-320.34 33.66,-306.97"/>
<polygon fill="black" stroke="black" points="37.02,-305.94 31.52,-296.89 30.17,-307.39 37.02,-305.94"/>
<text text-anchor="middle" x="45.45" y="-318.8" font-family="Times,serif" font-size="14.00">+</text>
</g>
<!-- x8 -->
<g id="node19" class="node">
<title>x8</title>
<ellipse fill="none" stroke="black" cx="100.95" cy="-279" rx="27" ry="18"/>
<text text-anchor="middle" x="100.95" y="-275.3" font-family="Times,serif" font-size="14.00">x8</text>
</g>
<!-- x1&#45;&gt;x8 -->
<g id="edge4" class="edge">
<title>x1&#45;&gt;x8</title>
<path fill="none" stroke="black" d="M56.29,-349.01C64.44,-336.43 75.92,-318.68 85.2,-304.33"/>
<polygon fill="black" stroke="black" points="88.15,-306.21 90.65,-295.92 82.28,-302.41 88.15,-306.21"/>
<text text-anchor="middle" x="83.45" y="-318.8" font-family="Times,serif" font-size="14.00">+</text>
</g>
<!-- x10 -->
<g id="node3" class="node">
<title>x10</title>
<ellipse fill="none" stroke="black" cx="82.95" cy="-105" rx="27.9" ry="18"/>
<text text-anchor="middle" x="82.95" y="-101.3" font-family="Times,serif" font-size="14.00">x10</text>
</g>
<!-- x11 -->
<g id="node4" class="node">
<title>x11</title>
<ellipse fill="none" stroke="black" cx="100.95" cy="-192" rx="27.9" ry="18"/>
<text text-anchor="middle" x="100.95" y="-188.3" font-family="Times,serif" font-size="14.00">x11</text>
</g>
<!-- x11&#45;&gt;x10 -->
<g id="edge7" class="edge">
<title>x11&#45;&gt;x10</title>
<path fill="none" stroke="black" d="M97.3,-173.8C94.82,-162.09 91.49,-146.34 88.66,-132.97"/>
<polygon fill="black" stroke="black" points="92.02,-131.94 86.52,-122.89 85.17,-133.39 92.02,-131.94"/>
<text text-anchor="middle" x="100.45" y="-144.8" font-family="Times,serif" font-size="14.00">+</text>
</g>
<!-- x6 -->
<g id="node18" class="node">
<title>x6</title>
<ellipse fill="none" stroke="black" cx="155.95" cy="-105" rx="27" ry="18"/>
<text text-anchor="middle" x="155.95" y="-101.3" font-family="Times,serif" font-size="14.00">x6</text>
</g>
<!-- x11&#45;&gt;x6 -->
<g id="edge8" class="edge">
<title>x11&#45;&gt;x6</title>
<path fill="none" stroke="black" d="M111.29,-175.01C119.44,-162.43 130.92,-144.68 140.2,-130.33"/>
<polygon fill="black" stroke="black" points="143.15,-132.21 145.65,-121.92 137.28,-128.41 143.15,-132.21"/>
<text text-anchor="middle" x="134.45" y="-144.8" font-family="Times,serif" font-size="14.00">&#45;</text>
</g>
<!-- x12 -->
<g id="node5" class="node">
<title>x12</title>
<ellipse fill="none" stroke="black" cx="163.95" cy="-540" rx="27.9" ry="18"/>
<text text-anchor="middle" x="163.95" y="-536.3" font-family="Times,serif" font-size="14.00">x12</text>
</g>
<!-- x14 -->
<g id="node7" class="node">
<title>x14</title>
<ellipse fill="none" stroke="black" cx="150.95" cy="-453" rx="27.9" ry="18"/>
<text text-anchor="middle" x="150.95" y="-449.3" font-family="Times,serif" font-size="14.00">x14</text>
</g>
<!-- x12&#45;&gt;x14 -->
<g id="edge9" class="edge">
<title>x12&#45;&gt;x14</title>
<path fill="none" stroke="black" d="M161.32,-521.8C159.54,-510.16 157.15,-494.55 155.11,-481.24"/>
<polygon fill="black" stroke="black" points="158.55,-480.53 153.57,-471.18 151.63,-481.59 158.55,-480.53"/>
<text text-anchor="middle" x="165.45" y="-492.8" font-family="Times,serif" font-size="14.00">+</text>
</g>
<!-- x14&#45;&gt;x1 -->
<g id="edge11" class="edge">
<title>x14&#45;&gt;x1</title>
<path fill="none" stroke="black" d="M134.08,-438.34C116.83,-424.38 89.87,-402.56 70.31,-386.72"/>
<polygon fill="black" stroke="black" points="72.4,-383.91 62.43,-380.34 68,-389.35 72.4,-383.91"/>
<text text-anchor="middle" x="111.45" y="-405.8" font-family="Times,serif" font-size="14.00">+</text>
</g>
<!-- x15 -->
<g id="node8" class="node">
<title>x15</title>
<ellipse fill="none" stroke="black" cx="149.95" cy="-366" rx="27.9" ry="18"/>
<text text-anchor="middle" x="149.95" y="-362.3" font-family="Times,serif" font-size="14.00">x15</text>
</g>
<!-- x14&#45;&gt;x15 -->
<g id="edge12" class="edge">
<title>x14&#45;&gt;x15</title>
<path fill="none" stroke="black" d="M150.75,-434.8C150.61,-423.16 150.42,-407.55 150.27,-394.24"/>
<polygon fill="black" stroke="black" points="153.77,-394.13 150.15,-384.18 146.77,-394.22 153.77,-394.13"/>
<text text-anchor="middle" x="157.45" y="-405.8" font-family="Times,serif" font-size="14.00">+</text>
</g>
<!-- x2 -->
<g id="node10" class="node">
<title>x2</title>
<ellipse fill="none" stroke="black" cx="304.95" cy="-366" rx="27" ry="18"/>
<text text-anchor="middle" x="304.95" y="-362.3" font-family="Times,serif" font-size="14.00">x2</text>
</g>
<!-- x14&#45;&gt;x2 -->
<g id="edge10" class="edge">
<title>x14&#45;&gt;x2</title>
<path fill="none" stroke="black" d="M172.75,-441.67C177.71,-439.4 182.99,-437.07 187.95,-435 208.98,-426.24 215.88,-427.78 235.95,-417 251.77,-408.5 268.1,-396.82 280.9,-386.88"/>
<polygon fill="black" stroke="black" points="283.1,-389.61 288.77,-380.66 278.75,-384.12 283.1,-389.61"/>
<text text-anchor="middle" x="262.45" y="-405.8" font-family="Times,serif" font-size="14.00">&#45;</text>
</g>
<!-- x26 -->
<g id="node15" class="node">
<title>x26</title>
<ellipse fill="none" stroke="black" cx="372.95" cy="-540" rx="27.9" ry="18"/>
<text text-anchor="middle" x="372.95" y="-536.3" font-family="Times,serif" font-size="14.00">x26</text>
</g>
<!-- x17&#45;&gt;x26 -->
<g id="edge13" class="edge">
<title>x17&#45;&gt;x26</title>
<path fill="none" stroke="black" d="M372.15,-608.8C372.29,-597.16 372.47,-581.55 372.63,-568.24"/>
<polygon fill="black" stroke="black" points="376.13,-568.22 372.75,-558.18 369.13,-568.13 376.13,-568.22"/>
<text text-anchor="middle" x="374.45" y="-579.8" font-family="Times,serif" font-size="14.00">&#45;</text>
</g>
<!-- x2&#45;&gt;x0 -->
<g id="edge14" class="edge">
<title>x2&#45;&gt;x0</title>
<path fill="none" stroke="black" d="M307.84,-384.2C310.48,-401.33 313.95,-428.41 313.95,-452 313.95,-628 313.95,-628 313.95,-628 313.95,-647.33 311.87,-669.03 309.83,-685.66"/>
<polygon fill="black" stroke="black" points="306.34,-685.42 308.52,-695.79 313.28,-686.32 306.34,-685.42"/>
<text text-anchor="middle" x="320.45" y="-536.3" font-family="Times,serif" font-size="14.00">+</text>
</g>
<!-- x20 -->
<g id="node11" class="node">
<title>x20</title>
<ellipse fill="none" stroke="black" cx="369.95" cy="-453" rx="27.9" ry="18"/>
<text text-anchor="middle" x="369.95" y="-449.3" font-family="Times,serif" font-size="14.00">x20</text>
</g>
<!-- x20&#45;&gt;x2 -->
<g id="edge15" class="edge">
<title>x20&#45;&gt;x2</title>
<path fill="none" stroke="black" d="M358.03,-436.41C348.22,-423.59 334.17,-405.22 322.99,-390.6"/>
<polygon fill="black" stroke="black" points="325.65,-388.31 316.79,-382.49 320.09,-392.56 325.65,-388.31"/>
<text text-anchor="middle" x="344.45" y="-405.8" font-family="Times,serif" font-size="14.00">&#45;</text>
</g>
<!-- x21 -->
<g id="node12" class="node">
<title>x21</title>
<ellipse fill="none" stroke="black" cx="155.95" cy="-18" rx="27.9" ry="18"/>
<text text-anchor="middle" x="155.95" y="-14.3" font-family="Times,serif" font-size="14.00">x21</text>
</g>
<!-- x23 -->
<g id="node13" class="node">
<title>x23</title>
<ellipse fill="none" stroke="black" cx="163.95" cy="-627" rx="27.9" ry="18"/>
<text text-anchor="middle" x="163.95" y="-623.3" font-family="Times,serif" font-size="14.00">x23</text>
</g>
<!-- x23&#45;&gt;x12 -->
<g id="edge16" class="edge">
<title>x23&#45;&gt;x12</title>
<path fill="none" stroke="black" d="M163.95,-608.8C163.95,-597.16 163.95,-581.55 163.95,-568.24"/>
<polygon fill="black" stroke="black" points="167.45,-568.18 163.95,-558.18 160.45,-568.18 167.45,-568.18"/>
<text text-anchor="middle" x="170.45" y="-579.8" font-family="Times,serif" font-size="14.00">+</text>
</g>
<!-- x24 -->
<g id="node14" class="node">
<title>x24</title>
<ellipse fill="none" stroke="black" cx="223.95" cy="-366" rx="27.9" ry="18"/>
<text text-anchor="middle" x="223.95" y="-362.3" font-family="Times,serif" font-size="14.00">x24</text>
</g>
<!-- x3 -->
<g id="node16" class="node">
<title>x3</title>
<ellipse fill="none" stroke="black" cx="223.95" cy="-453" rx="27" ry="18"/>
<text text-anchor="middle" x="223.95" y="-449.3" font-family="Times,serif" font-size="14.00">x3</text>
</g>
<!-- x3&#45;&gt;x1 -->
<g id="edge19" class="edge">
<title>x3&#45;&gt;x1</title>
<path fill="none" stroke="black" d="M209.9,-437.41C198.46,-426.29 181.4,-411.34 163.95,-402 149.54,-394.29 110.22,-383.29 80.9,-375.7"/>
<polygon fill="black" stroke="black" points="81.56,-372.25 71.01,-373.16 79.83,-379.03 81.56,-372.25"/>
<text text-anchor="middle" x="192.45" y="-405.8" font-family="Times,serif" font-size="14.00">+</text>
</g>
<!-- x3&#45;&gt;x2 -->
<g id="edge18" class="edge">
<title>x3&#45;&gt;x2</title>
<path fill="none" stroke="black" d="M240.46,-438.62C247.9,-432.32 256.63,-424.56 263.95,-417 272,-408.69 280.21,-398.97 287.15,-390.32"/>
<polygon fill="black" stroke="black" points="289.92,-392.45 293.37,-382.43 284.43,-388.12 289.92,-392.45"/>
<text text-anchor="middle" x="284.45" y="-405.8" font-family="Times,serif" font-size="14.00">+</text>
</g>
<!-- x3&#45;&gt;x24 -->
<g id="edge17" class="edge">
<title>x3&#45;&gt;x24</title>
<path fill="none" stroke="black" d="M223.31,-434.88C223.03,-425.22 222.79,-412.94 222.95,-402 222.98,-399.45 223.04,-396.79 223.1,-394.13"/>
<polygon fill="black" stroke="black" points="226.6,-394.18 223.36,-384.09 219.6,-393.99 226.6,-394.18"/>
<text text-anchor="middle" x="229.45" y="-405.8" font-family="Times,serif" font-size="14.00">+</text>
</g>
<!-- x4 -->
<g id="node17" class="node">
<title>x4</title>
<ellipse fill="none" stroke="black" cx="77.95" cy="-453" rx="27" ry="18"/>
<text text-anchor="middle" x="77.95" y="-449.3" font-family="Times,serif" font-size="14.00">x4</text>
</g>
<!-- x4&#45;&gt;x1 -->
<g id="edge20" class="edge">
<title>x4&#45;&gt;x1</title>
<path fill="none" stroke="black" d="M71.63,-435.21C67.11,-423.22 60.95,-406.85 55.79,-393.16"/>
<polygon fill="black" stroke="black" points="59.06,-391.88 52.26,-383.76 52.5,-394.35 59.06,-391.88"/>
<text text-anchor="middle" x="70.45" y="-405.8" font-family="Times,serif" font-size="14.00">+</text>
</g>
<!-- x6&#45;&gt;x21 -->
<g id="edge21" class="edge">
<title>x6&#45;&gt;x21</title>
<path fill="none" stroke="black" d="M155.95,-86.8C155.95,-75.16 155.95,-59.55 155.95,-46.24"/>
<polygon fill="black" stroke="black" points="159.45,-46.18 155.95,-36.18 152.45,-46.18 159.45,-46.18"/>
<text text-anchor="middle" x="162.45" y="-57.8" font-family="Times,serif" font-size="14.00">+</text>
</g>
<!-- x8&#45;&gt;x11 -->
<g id="edge22" class="edge">
<title>x8&#45;&gt;x11</title>
<path fill="none" stroke="black" d="M100.95,-260.8C100.95,-249.16 100.95,-233.55 100.95,-220.24"/>
<polygon fill="black" stroke="black" points="104.45,-220.18 100.95,-210.18 97.45,-220.18 104.45,-220.18"/>
<text text-anchor="middle" x="103.45" y="-231.8" font-family="Times,serif" font-size="14.00">&#45;</text>
</g>
<!-- x9&#45;&gt;x12 -->
<g id="edge23" class="edge">
<title>x9&#45;&gt;x12</title>
<path fill="none" stroke="black" d="M239.09,-611.96C224.84,-598.51 203.14,-578.01 186.72,-562.5"/>
<polygon fill="black" stroke="black" points="188.81,-559.66 179.13,-555.34 184,-564.75 188.81,-559.66"/>
<text text-anchor="middle" x="217.45" y="-579.8" font-family="Times,serif" font-size="14.00">&#45;</text>
</g>
</g>
</svg>
