<?xml version="1.0" encoding="UTF-8" standalone="no"?>
<!DOCTYPE svg PUBLIC "-//W3C//DTD SVG 1.1//EN"
 "http://www.w3.org/Graphics/SVG/1.1/DTD/svg11.dtd">
<!-- Generated by graphviz version 2.43.0 (0)
 -->
<!-- Title: %3 Pages: 1 -->
<svg width="497pt" height="653pt"
 viewBox="0.00 0.00 497.00 653.00" xmlns="http://www.w3.org/2000/svg" xmlns:xlink="http://www.w3.org/1999/xlink">
<g id="graph0" class="graph" transform="scale(1 1) rotate(0) translate(4 649)">
<title>%3</title>
<polygon fill="white" stroke="transparent" points="-4,4 -4,-649 493,-649 493,4 -4,4"/>
<!-- TF7 -->
<g id="node1" class="node">
<title>TF7</title>
<ellipse fill="none" stroke="black" cx="135" cy="-627" rx="28.7" ry="18"/>
<text text-anchor="middle" x="135" y="-623.3" font-family="Times,serif" font-size="14.00">TF7</text>
</g>
<!-- TF6 -->
<g id="node2" class="node">
<title>TF6</title>
<ellipse fill="none" stroke="black" cx="135" cy="-540" rx="28.7" ry="18"/>
<text text-anchor="middle" x="135" y="-536.3" font-family="Times,serif" font-size="14.00">TF6</text>
</g>
<!-- TF7&#45;&gt;TF6 -->
<g id="edge1" class="edge">
<title>TF7&#45;&gt;TF6</title>
<path fill="none" stroke="black" d="M135,-608.8C135,-597.16 135,-581.55 135,-568.24"/>
<polygon fill="black" stroke="black" points="138.5,-568.18 135,-558.18 131.5,-568.18 138.5,-568.18"/>
<text text-anchor="middle" x="137.5" y="-579.8" font-family="Times,serif" font-size="14.00">&#45;</text>
</g>
<!-- G7 -->
<g id="node3" class="node">
<title>G7</title>
<ellipse fill="none" stroke="black" cx="27" cy="-453" rx="27" ry="18"/>
<text text-anchor="middle" x="27" y="-449.3" font-family="Times,serif" font-size="14.00">G7</text>
</g>
<!-- TF6&#45;&gt;G7 -->
<g id="edge2" class="edge">
<title>TF6&#45;&gt;G7</title>
<path fill="none" stroke="black" d="M117.65,-525.34C99.91,-511.38 72.18,-489.56 52.06,-473.72"/>
<polygon fill="black" stroke="black" points="53.98,-470.78 43.95,-467.34 49.65,-476.28 53.98,-470.78"/>
<text text-anchor="middle" x="94.5" y="-492.8" font-family="Times,serif" font-size="14.00">+</text>
</g>
<!-- G8 -->
<g id="node4" class="node">
<title>G8</title>
<ellipse fill="none" stroke="black" cx="99" cy="-453" rx="27" ry="18"/>
<text text-anchor="middle" x="99" y="-449.3" font-family="Times,serif" font-size="14.00">G8</text>
</g>
<!-- TF6&#45;&gt;G8 -->
<g id="edge3" class="edge">
<title>TF6&#45;&gt;G8</title>
<path fill="none" stroke="black" d="M127.89,-522.21C122.78,-510.14 115.79,-493.64 109.97,-479.89"/>
<polygon fill="black" stroke="black" points="113.1,-478.31 105.98,-470.47 106.65,-481.04 113.1,-478.31"/>
<text text-anchor="middle" x="126.5" y="-492.8" font-family="Times,serif" font-size="14.00">+</text>
</g>
<!-- G9 -->
<g id="node5" class="node">
<title>G9</title>
<ellipse fill="none" stroke="black" cx="171" cy="-453" rx="27" ry="18"/>
<text text-anchor="middle" x="171" y="-449.3" font-family="Times,serif" font-size="14.00">G9</text>
</g>
<!-- TF6&#45;&gt;G9 -->
<g id="edge4" class="edge">
<title>TF6&#45;&gt;G9</title>
<path fill="none" stroke="black" d="M142.11,-522.21C147.22,-510.14 154.21,-493.64 160.03,-479.89"/>
<polygon fill="black" stroke="black" points="163.35,-481.04 164.02,-470.47 156.9,-478.31 163.35,-481.04"/>
<text text-anchor="middle" x="162.5" y="-492.8" font-family="Times,serif" font-size="14.00">+</text>
</g>
<!-- TF5 -->
<g id="node6" class="node">
<title>TF5</title>
<ellipse fill="none" stroke="black" cx="245" cy="-453" rx="28.7" ry="18"/>
<text text-anchor="middle" x="245" y="-449.3" font-family="Times,serif" font-size="14.00">TF5</text>
</g>
<!-- TF6&#45;&gt;TF5 -->
<g id="edge5" class="edge">
<title>TF6&#45;&gt;TF5</title>
<path fill="none" stroke="black" d="M152.67,-525.34C170.71,-511.4 198.9,-489.62 219.39,-473.79"/>
<polygon fill="black" stroke="black" points="221.6,-476.51 227.37,-467.62 217.32,-470.97 221.6,-476.51"/>
<text text-anchor="middle" x="199.5" y="-492.8" font-family="Times,serif" font-size="14.00">&#45;</text>
</g>
<!-- TF4 -->
<g id="node7" class="node">
<title>TF4</title>
<ellipse fill="none" stroke="black" cx="245" cy="-366" rx="28.7" ry="18"/>
<text text-anchor="middle" x="245" y="-362.3" font-family="Times,serif" font-size="14.00">TF4</text>
</g>
<!-- TF5&#45;&gt;TF4 -->
<g id="edge6" class="edge">
<title>TF5&#45;&gt;TF4</title>
<path fill="none" stroke="black" d="M245,-434.8C245,-423.16 245,-407.55 245,-394.24"/>
<polygon fill="black" stroke="black" points="248.5,-394.18 245,-384.18 241.5,-394.18 248.5,-394.18"/>
<text text-anchor="middle" x="251.5" y="-405.8" font-family="Times,serif" font-size="14.00">+</text>
</g>
<!-- TF3 -->
<g id="node8" class="node">
<title>TF3</title>
<ellipse fill="none" stroke="black" cx="245" cy="-279" rx="28.7" ry="18"/>
<text text-anchor="middle" x="245" y="-275.3" font-family="Times,serif" font-size="14.00">TF3</text>
</g>
<!-- TF4&#45;&gt;TF3 -->
<g id="edge7" class="edge">
<title>TF4&#45;&gt;TF3</title>
<path fill="none" stroke="black" d="M245,-347.8C245,-336.16 245,-320.55 245,-307.24"/>
<polygon fill="black" stroke="black" points="248.5,-307.18 245,-297.18 241.5,-307.18 248.5,-307.18"/>
<text text-anchor="middle" x="251.5" y="-318.8" font-family="Times,serif" font-size="14.00">+</text>
</g>
<!-- TF1 -->
<g id="node9" class="node">
<title>TF1</title>
<ellipse fill="none" stroke="black" cx="304" cy="-192" rx="28.7" ry="18"/>
<text text-anchor="middle" x="304" y="-188.3" font-family="Times,serif" font-size="14.00">TF1</text>
</g>
<!-- TF3&#45;&gt;TF1 -->
<g id="edge8" class="edge">
<title>TF3&#45;&gt;TF1</title>
<path fill="none" stroke="black" d="M256.1,-262.01C264.83,-249.43 277.15,-231.68 287.11,-217.33"/>
<polygon fill="black" stroke="black" points="290.13,-219.13 292.95,-208.92 284.37,-215.14 290.13,-219.13"/>
<text text-anchor="middle" x="285.5" y="-231.8" font-family="Times,serif" font-size="14.00">+</text>
</g>
<!-- TF2 -->
<g id="node10" class="node">
<title>TF2</title>
<ellipse fill="none" stroke="black" cx="244" cy="-105" rx="28.7" ry="18"/>
<text text-anchor="middle" x="244" y="-101.3" font-family="Times,serif" font-size="14.00">TF2</text>
</g>
<!-- TF3&#45;&gt;TF2 -->
<g id="edge9" class="edge">
<title>TF3&#45;&gt;TF2</title>
<path fill="none" stroke="black" d="M244.9,-260.88C244.73,-231 244.37,-169.11 244.16,-133.27"/>
<polygon fill="black" stroke="black" points="247.66,-133.03 244.1,-123.05 240.66,-133.07 247.66,-133.03"/>
<text text-anchor="middle" x="251.5" y="-188.3" font-family="Times,serif" font-size="14.00">+</text>
</g>
<!-- TF1&#45;&gt;TF2 -->
<g id="edge13" class="edge">
<title>TF1&#45;&gt;TF2</title>
<path fill="none" stroke="black" d="M286.78,-177.21C280.02,-171.2 272.57,-163.76 267,-156 261.85,-148.82 257.43,-140.31 253.87,-132.36"/>
<polygon fill="black" stroke="black" points="257.07,-130.94 249.97,-123.08 250.61,-133.65 257.07,-130.94"/>
<text text-anchor="middle" x="269.5" y="-144.8" font-family="Times,serif" font-size="14.00">&#45;</text>
</g>
<!-- G1 -->
<g id="node11" class="node">
<title>G1</title>
<ellipse fill="none" stroke="black" cx="318" cy="-105" rx="27" ry="18"/>
<text text-anchor="middle" x="318" y="-101.3" font-family="Times,serif" font-size="14.00">G1</text>
</g>
<!-- TF1&#45;&gt;G1 -->
<g id="edge10" class="edge">
<title>TF1&#45;&gt;G1</title>
<path fill="none" stroke="black" d="M306.83,-173.8C308.75,-162.16 311.32,-146.55 313.51,-133.24"/>
<polygon fill="black" stroke="black" points="317,-133.61 315.17,-123.18 310.09,-132.47 317,-133.61"/>
<text text-anchor="middle" x="318.5" y="-144.8" font-family="Times,serif" font-size="14.00">+</text>
</g>
<!-- G2 -->
<g id="node12" class="node">
<title>G2</title>
<ellipse fill="none" stroke="black" cx="390" cy="-105" rx="27" ry="18"/>
<text text-anchor="middle" x="390" y="-101.3" font-family="Times,serif" font-size="14.00">G2</text>
</g>
<!-- TF1&#45;&gt;G2 -->
<g id="edge11" class="edge">
<title>TF1&#45;&gt;G2</title>
<path fill="none" stroke="black" d="M318.98,-176.19C332.63,-162.71 352.95,-142.62 368.36,-127.39"/>
<polygon fill="black" stroke="black" points="370.83,-129.87 375.48,-120.35 365.91,-124.89 370.83,-129.87"/>
<text text-anchor="middle" x="359.5" y="-144.8" font-family="Times,serif" font-size="14.00">+</text>
</g>
<!-- G3 -->
<g id="node13" class="node">
<title>G3</title>
<ellipse fill="none" stroke="black" cx="462" cy="-105" rx="27" ry="18"/>
<text text-anchor="middle" x="462" y="-101.3" font-family="Times,serif" font-size="14.00">G3</text>
</g>
<!-- TF1&#45;&gt;G3 -->
<g id="edge12" class="edge">
<title>TF1&#45;&gt;G3</title>
<path fill="none" stroke="black" d="M325.13,-179.86C338.1,-173.01 355.03,-164.04 370,-156 391,-144.72 414.63,-131.88 432.68,-122.03"/>
<polygon fill="black" stroke="black" points="434.47,-125.04 441.57,-117.18 431.12,-118.9 434.47,-125.04"/>
<text text-anchor="middle" x="402.5" y="-144.8" font-family="Times,serif" font-size="14.00">+</text>
</g>
<!-- TF2&#45;&gt;TF1 -->
<g id="edge14" class="edge">
<title>TF2&#45;&gt;TF1</title>
<path fill="none" stroke="black" d="M255.03,-121.63C263.9,-134.19 276.52,-152.07 286.73,-166.53"/>
<polygon fill="black" stroke="black" points="284.09,-168.86 292.71,-175.01 289.81,-164.82 284.09,-168.86"/>
<text text-anchor="middle" x="280.5" y="-144.8" font-family="Times,serif" font-size="14.00">&#45;</text>
</g>
<!-- G4 -->
<g id="node14" class="node">
<title>G4</title>
<ellipse fill="none" stroke="black" cx="172" cy="-18" rx="27" ry="18"/>
<text text-anchor="middle" x="172" y="-14.3" font-family="Times,serif" font-size="14.00">G4</text>
</g>
<!-- TF2&#45;&gt;G4 -->
<g id="edge15" class="edge">
<title>TF2&#45;&gt;G4</title>
<path fill="none" stroke="black" d="M231.13,-88.8C220.07,-75.75 203.96,-56.74 191.35,-41.85"/>
<polygon fill="black" stroke="black" points="193.89,-39.43 184.76,-34.06 188.55,-43.96 193.89,-39.43"/>
<text text-anchor="middle" x="219.5" y="-57.8" font-family="Times,serif" font-size="14.00">+</text>
</g>
<!-- G5 -->
<g id="node15" class="node">
<title>G5</title>
<ellipse fill="none" stroke="black" cx="244" cy="-18" rx="27" ry="18"/>
<text text-anchor="middle" x="244" y="-14.3" font-family="Times,serif" font-size="14.00">G5</text>
</g>
<!-- TF2&#45;&gt;G5 -->
<g id="edge16" class="edge">
<title>TF2&#45;&gt;G5</title>
<path fill="none" stroke="black" d="M244,-86.8C244,-75.16 244,-59.55 244,-46.24"/>
<polygon fill="black" stroke="black" points="247.5,-46.18 244,-36.18 240.5,-46.18 247.5,-46.18"/>
<text text-anchor="middle" x="250.5" y="-57.8" font-family="Times,serif" font-size="14.00">+</text>
</g>
<!-- G6 -->
<g id="node16" class="node">
<title>G6</title>
<ellipse fill="none" stroke="black" cx="316" cy="-18" rx="27" ry="18"/>
<text text-anchor="middle" x="316" y="-14.3" font-family="Times,serif" font-size="14.00">G6</text>
</g>
<!-- TF2&#45;&gt;G6 -->
<g id="edge17" class="edge">
<title>TF2&#45;&gt;G6</title>
<path fill="none" stroke="black" d="M256.87,-88.8C267.93,-75.75 284.04,-56.74 296.65,-41.85"/>
<polygon fill="black" stroke="black" points="299.45,-43.96 303.24,-34.06 294.11,-39.43 299.45,-43.96"/>
<text text-anchor="middle" x="291.5" y="-57.8" font-family="Times,serif" font-size="14.00">+</text>
</g>
</g>
</svg>
