<?xml version="1.0" encoding="utf-8" standalone="no"?>
<!DOCTYPE svg PUBLIC "-//W3C//DTD SVG 1.1//EN"
  "http://www.w3.org/Graphics/SVG/1.1/DTD/svg11.dtd">
<svg xmlns:xlink="http://www.w3.org/1999/xlink" width="278.711563pt" height="478.638281pt" viewBox="0 0 278.711563 478.638281" xmlns="http://www.w3.org/2000/svg" version="1.1">
 <metadata>
  <rdf:RDF xmlns:dc="http://purl.org/dc/elements/1.1/" xmlns:cc="http://creativecommons.org/ns#" xmlns:rdf="http://www.w3.org/1999/02/22-rdf-syntax-ns#">
   <cc:Work>
    <dc:type rdf:resource="http://purl.org/dc/dcmitype/StillImage"/>
    <dc:date>2025-03-31T12:04:26.172881</dc:date>
    <dc:format>image/svg+xml</dc:format>
    <dc:creator>
     <cc:Agent>
      <dc:title>Matplotlib v3.10.1, https://matplotlib.org/</dc:title>
     </cc:Agent>
    </dc:creator>
   </cc:Work>
  </rdf:RDF>
 </metadata>
 <defs>
  <style type="text/css">*{stroke-linejoin: round; stroke-linecap: butt}</style>
 </defs>
 <g id="figure_1">
  <g id="patch_1">
   <path d="M 0 478.638281 
L 278.711563 478.638281 
L 278.711563 0 
L 0 0 
z
" style="fill: #ffffff"/>
  </g>
  <g id="axes_1">
   <g id="patch_2">
    <path d="M 141.295625 410.398125 
L 252.895625 410.398125 
L 252.895625 22.318125 
L 141.295625 22.318125 
z
" style="fill: #ffffff"/>
   </g>
   <g id="matplotlib.axis_1">
    <g id="xtick_1">
     <g id="line2d_1">
      <path d="M 178.495625 410.398125 
L 178.495625 22.318125 
" clip-path="url(#p2f5d674ccf)" style="fill: none; stroke: #cccccc; stroke-linecap: round"/>
     </g>
     <g id="text_1">
      <!-- Cluster_0 -->
      <g style="fill: #262626" transform="translate(181.377969 471.438281) rotate(-90) scale(0.11 -0.11)">
       <defs>
        <path id="DejaVuSans-43" d="M 4122 4306 
L 4122 3641 
Q 3803 3938 3442 4084 
Q 3081 4231 2675 4231 
Q 1875 4231 1450 3742 
Q 1025 3253 1025 2328 
Q 1025 1406 1450 917 
Q 1875 428 2675 428 
Q 3081 428 3442 575 
Q 3803 722 4122 1019 
L 4122 359 
Q 3791 134 3420 21 
Q 3050 -91 2638 -91 
Q 1578 -91 968 557 
Q 359 1206 359 2328 
Q 359 3453 968 4101 
Q 1578 4750 2638 4750 
Q 3056 4750 3426 4639 
Q 3797 4528 4122 4306 
z
" transform="scale(0.015625)"/>
        <path id="DejaVuSans-6c" d="M 603 4863 
L 1178 4863 
L 1178 0 
L 603 0 
L 603 4863 
z
" transform="scale(0.015625)"/>
        <path id="DejaVuSans-75" d="M 544 1381 
L 544 3500 
L 1119 3500 
L 1119 1403 
Q 1119 906 1312 657 
Q 1506 409 1894 409 
Q 2359 409 2629 706 
Q 2900 1003 2900 1516 
L 2900 3500 
L 3475 3500 
L 3475 0 
L 2900 0 
L 2900 538 
Q 2691 219 2414 64 
Q 2138 -91 1772 -91 
Q 1169 -91 856 284 
Q 544 659 544 1381 
z
M 1991 3584 
L 1991 3584 
z
" transform="scale(0.015625)"/>
        <path id="DejaVuSans-73" d="M 2834 3397 
L 2834 2853 
Q 2591 2978 2328 3040 
Q 2066 3103 1784 3103 
Q 1356 3103 1142 2972 
Q 928 2841 928 2578 
Q 928 2378 1081 2264 
Q 1234 2150 1697 2047 
L 1894 2003 
Q 2506 1872 2764 1633 
Q 3022 1394 3022 966 
Q 3022 478 2636 193 
Q 2250 -91 1575 -91 
Q 1294 -91 989 -36 
Q 684 19 347 128 
L 347 722 
Q 666 556 975 473 
Q 1284 391 1588 391 
Q 1994 391 2212 530 
Q 2431 669 2431 922 
Q 2431 1156 2273 1281 
Q 2116 1406 1581 1522 
L 1381 1569 
Q 847 1681 609 1914 
Q 372 2147 372 2553 
Q 372 3047 722 3315 
Q 1072 3584 1716 3584 
Q 2034 3584 2315 3537 
Q 2597 3491 2834 3397 
z
" transform="scale(0.015625)"/>
        <path id="DejaVuSans-74" d="M 1172 4494 
L 1172 3500 
L 2356 3500 
L 2356 3053 
L 1172 3053 
L 1172 1153 
Q 1172 725 1289 603 
Q 1406 481 1766 481 
L 2356 481 
L 2356 0 
L 1766 0 
Q 1100 0 847 248 
Q 594 497 594 1153 
L 594 3053 
L 172 3053 
L 172 3500 
L 594 3500 
L 594 4494 
L 1172 4494 
z
" transform="scale(0.015625)"/>
        <path id="DejaVuSans-65" d="M 3597 1894 
L 3597 1613 
L 953 1613 
Q 991 1019 1311 708 
Q 1631 397 2203 397 
Q 2534 397 2845 478 
Q 3156 559 3463 722 
L 3463 178 
Q 3153 47 2828 -22 
Q 2503 -91 2169 -91 
Q 1331 -91 842 396 
Q 353 884 353 1716 
Q 353 2575 817 3079 
Q 1281 3584 2069 3584 
Q 2775 3584 3186 3129 
Q 3597 2675 3597 1894 
z
M 3022 2063 
Q 3016 2534 2758 2815 
Q 2500 3097 2075 3097 
Q 1594 3097 1305 2825 
Q 1016 2553 972 2059 
L 3022 2063 
z
" transform="scale(0.015625)"/>
        <path id="DejaVuSans-72" d="M 2631 2963 
Q 2534 3019 2420 3045 
Q 2306 3072 2169 3072 
Q 1681 3072 1420 2755 
Q 1159 2438 1159 1844 
L 1159 0 
L 581 0 
L 581 3500 
L 1159 3500 
L 1159 2956 
Q 1341 3275 1631 3429 
Q 1922 3584 2338 3584 
Q 2397 3584 2469 3576 
Q 2541 3569 2628 3553 
L 2631 2963 
z
" transform="scale(0.015625)"/>
        <path id="DejaVuSans-5f" d="M 3263 -1063 
L 3263 -1509 
L -63 -1509 
L -63 -1063 
L 3263 -1063 
z
" transform="scale(0.015625)"/>
        <path id="DejaVuSans-30" d="M 2034 4250 
Q 1547 4250 1301 3770 
Q 1056 3291 1056 2328 
Q 1056 1369 1301 889 
Q 1547 409 2034 409 
Q 2525 409 2770 889 
Q 3016 1369 3016 2328 
Q 3016 3291 2770 3770 
Q 2525 4250 2034 4250 
z
M 2034 4750 
Q 2819 4750 3233 4129 
Q 3647 3509 3647 2328 
Q 3647 1150 3233 529 
Q 2819 -91 2034 -91 
Q 1250 -91 836 529 
Q 422 1150 422 2328 
Q 422 3509 836 4129 
Q 1250 4750 2034 4750 
z
" transform="scale(0.015625)"/>
       </defs>
       <use xlink:href="#DejaVuSans-43"/>
       <use xlink:href="#DejaVuSans-6c" transform="translate(69.824219 0)"/>
       <use xlink:href="#DejaVuSans-75" transform="translate(97.607422 0)"/>
       <use xlink:href="#DejaVuSans-73" transform="translate(160.986328 0)"/>
       <use xlink:href="#DejaVuSans-74" transform="translate(213.085938 0)"/>
       <use xlink:href="#DejaVuSans-65" transform="translate(252.294922 0)"/>
       <use xlink:href="#DejaVuSans-72" transform="translate(313.818359 0)"/>
       <use xlink:href="#DejaVuSans-5f" transform="translate(354.931641 0)"/>
       <use xlink:href="#DejaVuSans-30" transform="translate(404.931641 0)"/>
      </g>
     </g>
    </g>
    <g id="xtick_2">
     <g id="line2d_2">
      <path d="M 215.695625 410.398125 
L 215.695625 22.318125 
" clip-path="url(#p2f5d674ccf)" style="fill: none; stroke: #cccccc; stroke-linecap: round"/>
     </g>
     <g id="text_2">
      <!-- Cluster_1 -->
      <g style="fill: #262626" transform="translate(218.577969 471.438281) rotate(-90) scale(0.11 -0.11)">
       <defs>
        <path id="DejaVuSans-31" d="M 794 531 
L 1825 531 
L 1825 4091 
L 703 3866 
L 703 4441 
L 1819 4666 
L 2450 4666 
L 2450 531 
L 3481 531 
L 3481 0 
L 794 0 
L 794 531 
z
" transform="scale(0.015625)"/>
       </defs>
       <use xlink:href="#DejaVuSans-43"/>
       <use xlink:href="#DejaVuSans-6c" transform="translate(69.824219 0)"/>
       <use xlink:href="#DejaVuSans-75" transform="translate(97.607422 0)"/>
       <use xlink:href="#DejaVuSans-73" transform="translate(160.986328 0)"/>
       <use xlink:href="#DejaVuSans-74" transform="translate(213.085938 0)"/>
       <use xlink:href="#DejaVuSans-65" transform="translate(252.294922 0)"/>
       <use xlink:href="#DejaVuSans-72" transform="translate(313.818359 0)"/>
       <use xlink:href="#DejaVuSans-5f" transform="translate(354.931641 0)"/>
       <use xlink:href="#DejaVuSans-31" transform="translate(404.931641 0)"/>
      </g>
     </g>
    </g>
   </g>
   <g id="matplotlib.axis_2">
    <g id="ytick_1">
     <g id="line2d_3">
      <path d="M 141.295625 39.958125 
L 252.895625 39.958125 
" clip-path="url(#p2f5d674ccf)" style="fill: none; stroke: #cccccc; stroke-linecap: round"/>
     </g>
     <g id="text_3">
      <!-- Aldh1L1_(Stat3) -->
      <g style="fill: #262626" transform="translate(43.702813 44.137266) scale(0.11 -0.11)">
       <defs>
        <path id="DejaVuSans-41" d="M 2188 4044 
L 1331 1722 
L 3047 1722 
L 2188 4044 
z
M 1831 4666 
L 2547 4666 
L 4325 0 
L 3669 0 
L 3244 1197 
L 1141 1197 
L 716 0 
L 50 0 
L 1831 4666 
z
" transform="scale(0.015625)"/>
        <path id="DejaVuSans-64" d="M 2906 2969 
L 2906 4863 
L 3481 4863 
L 3481 0 
L 2906 0 
L 2906 525 
Q 2725 213 2448 61 
Q 2172 -91 1784 -91 
Q 1150 -91 751 415 
Q 353 922 353 1747 
Q 353 2572 751 3078 
Q 1150 3584 1784 3584 
Q 2172 3584 2448 3432 
Q 2725 3281 2906 2969 
z
M 947 1747 
Q 947 1113 1208 752 
Q 1469 391 1925 391 
Q 2381 391 2643 752 
Q 2906 1113 2906 1747 
Q 2906 2381 2643 2742 
Q 2381 3103 1925 3103 
Q 1469 3103 1208 2742 
Q 947 2381 947 1747 
z
" transform="scale(0.015625)"/>
        <path id="DejaVuSans-68" d="M 3513 2113 
L 3513 0 
L 2938 0 
L 2938 2094 
Q 2938 2591 2744 2837 
Q 2550 3084 2163 3084 
Q 1697 3084 1428 2787 
Q 1159 2491 1159 1978 
L 1159 0 
L 581 0 
L 581 4863 
L 1159 4863 
L 1159 2956 
Q 1366 3272 1645 3428 
Q 1925 3584 2291 3584 
Q 2894 3584 3203 3211 
Q 3513 2838 3513 2113 
z
" transform="scale(0.015625)"/>
        <path id="DejaVuSans-4c" d="M 628 4666 
L 1259 4666 
L 1259 531 
L 3531 531 
L 3531 0 
L 628 0 
L 628 4666 
z
" transform="scale(0.015625)"/>
        <path id="DejaVuSans-28" d="M 1984 4856 
Q 1566 4138 1362 3434 
Q 1159 2731 1159 2009 
Q 1159 1288 1364 580 
Q 1569 -128 1984 -844 
L 1484 -844 
Q 1016 -109 783 600 
Q 550 1309 550 2009 
Q 550 2706 781 3412 
Q 1013 4119 1484 4856 
L 1984 4856 
z
" transform="scale(0.015625)"/>
        <path id="DejaVuSans-53" d="M 3425 4513 
L 3425 3897 
Q 3066 4069 2747 4153 
Q 2428 4238 2131 4238 
Q 1616 4238 1336 4038 
Q 1056 3838 1056 3469 
Q 1056 3159 1242 3001 
Q 1428 2844 1947 2747 
L 2328 2669 
Q 3034 2534 3370 2195 
Q 3706 1856 3706 1288 
Q 3706 609 3251 259 
Q 2797 -91 1919 -91 
Q 1588 -91 1214 -16 
Q 841 59 441 206 
L 441 856 
Q 825 641 1194 531 
Q 1563 422 1919 422 
Q 2459 422 2753 634 
Q 3047 847 3047 1241 
Q 3047 1584 2836 1778 
Q 2625 1972 2144 2069 
L 1759 2144 
Q 1053 2284 737 2584 
Q 422 2884 422 3419 
Q 422 4038 858 4394 
Q 1294 4750 2059 4750 
Q 2388 4750 2728 4690 
Q 3069 4631 3425 4513 
z
" transform="scale(0.015625)"/>
        <path id="DejaVuSans-61" d="M 2194 1759 
Q 1497 1759 1228 1600 
Q 959 1441 959 1056 
Q 959 750 1161 570 
Q 1363 391 1709 391 
Q 2188 391 2477 730 
Q 2766 1069 2766 1631 
L 2766 1759 
L 2194 1759 
z
M 3341 1997 
L 3341 0 
L 2766 0 
L 2766 531 
Q 2569 213 2275 61 
Q 1981 -91 1556 -91 
Q 1019 -91 701 211 
Q 384 513 384 1019 
Q 384 1609 779 1909 
Q 1175 2209 1959 2209 
L 2766 2209 
L 2766 2266 
Q 2766 2663 2505 2880 
Q 2244 3097 1772 3097 
Q 1472 3097 1187 3025 
Q 903 2953 641 2809 
L 641 3341 
Q 956 3463 1253 3523 
Q 1550 3584 1831 3584 
Q 2591 3584 2966 3190 
Q 3341 2797 3341 1997 
z
" transform="scale(0.015625)"/>
        <path id="DejaVuSans-33" d="M 2597 2516 
Q 3050 2419 3304 2112 
Q 3559 1806 3559 1356 
Q 3559 666 3084 287 
Q 2609 -91 1734 -91 
Q 1441 -91 1130 -33 
Q 819 25 488 141 
L 488 750 
Q 750 597 1062 519 
Q 1375 441 1716 441 
Q 2309 441 2620 675 
Q 2931 909 2931 1356 
Q 2931 1769 2642 2001 
Q 2353 2234 1838 2234 
L 1294 2234 
L 1294 2753 
L 1863 2753 
Q 2328 2753 2575 2939 
Q 2822 3125 2822 3475 
Q 2822 3834 2567 4026 
Q 2313 4219 1838 4219 
Q 1578 4219 1281 4162 
Q 984 4106 628 3988 
L 628 4550 
Q 988 4650 1302 4700 
Q 1616 4750 1894 4750 
Q 2613 4750 3031 4423 
Q 3450 4097 3450 3541 
Q 3450 3153 3228 2886 
Q 3006 2619 2597 2516 
z
" transform="scale(0.015625)"/>
        <path id="DejaVuSans-29" d="M 513 4856 
L 1013 4856 
Q 1481 4119 1714 3412 
Q 1947 2706 1947 2009 
Q 1947 1309 1714 600 
Q 1481 -109 1013 -844 
L 513 -844 
Q 928 -128 1133 580 
Q 1338 1288 1338 2009 
Q 1338 2731 1133 3434 
Q 928 4138 513 4856 
z
" transform="scale(0.015625)"/>
       </defs>
       <use xlink:href="#DejaVuSans-41"/>
       <use xlink:href="#DejaVuSans-6c" transform="translate(68.408203 0)"/>
       <use xlink:href="#DejaVuSans-64" transform="translate(96.191406 0)"/>
       <use xlink:href="#DejaVuSans-68" transform="translate(159.667969 0)"/>
       <use xlink:href="#DejaVuSans-31" transform="translate(223.046875 0)"/>
       <use xlink:href="#DejaVuSans-4c" transform="translate(286.669922 0)"/>
       <use xlink:href="#DejaVuSans-31" transform="translate(342.382812 0)"/>
       <use xlink:href="#DejaVuSans-5f" transform="translate(406.005859 0)"/>
       <use xlink:href="#DejaVuSans-28" transform="translate(456.005859 0)"/>
       <use xlink:href="#DejaVuSans-53" transform="translate(495.019531 0)"/>
       <use xlink:href="#DejaVuSans-74" transform="translate(558.496094 0)"/>
       <use xlink:href="#DejaVuSans-61" transform="translate(597.705078 0)"/>
       <use xlink:href="#DejaVuSans-74" transform="translate(658.984375 0)"/>
       <use xlink:href="#DejaVuSans-33" transform="translate(698.193359 0)"/>
       <use xlink:href="#DejaVuSans-29" transform="translate(761.816406 0)"/>
      </g>
     </g>
    </g>
    <g id="ytick_2">
     <g id="line2d_4">
      <path d="M 141.295625 58.526546 
L 252.895625 58.526546 
" clip-path="url(#p2f5d674ccf)" style="fill: none; stroke: #cccccc; stroke-linecap: round"/>
     </g>
     <g id="text_4">
      <!-- Hes5_(!Mash1 &amp; Pax6) -->
      <g style="fill: #262626" transform="translate(7.641719 62.705687) scale(0.11 -0.11)">
       <defs>
        <path id="DejaVuSans-48" d="M 628 4666 
L 1259 4666 
L 1259 2753 
L 3553 2753 
L 3553 4666 
L 4184 4666 
L 4184 0 
L 3553 0 
L 3553 2222 
L 1259 2222 
L 1259 0 
L 628 0 
L 628 4666 
z
" transform="scale(0.015625)"/>
        <path id="DejaVuSans-35" d="M 691 4666 
L 3169 4666 
L 3169 4134 
L 1269 4134 
L 1269 2991 
Q 1406 3038 1543 3061 
Q 1681 3084 1819 3084 
Q 2600 3084 3056 2656 
Q 3513 2228 3513 1497 
Q 3513 744 3044 326 
Q 2575 -91 1722 -91 
Q 1428 -91 1123 -41 
Q 819 9 494 109 
L 494 744 
Q 775 591 1075 516 
Q 1375 441 1709 441 
Q 2250 441 2565 725 
Q 2881 1009 2881 1497 
Q 2881 1984 2565 2268 
Q 2250 2553 1709 2553 
Q 1456 2553 1204 2497 
Q 953 2441 691 2322 
L 691 4666 
z
" transform="scale(0.015625)"/>
        <path id="DejaVuSans-21" d="M 966 794 
L 1600 794 
L 1600 0 
L 966 0 
L 966 794 
z
M 966 4666 
L 1600 4666 
L 1600 2619 
L 1538 1503 
L 1031 1503 
L 966 2619 
L 966 4666 
z
" transform="scale(0.015625)"/>
        <path id="DejaVuSans-4d" d="M 628 4666 
L 1569 4666 
L 2759 1491 
L 3956 4666 
L 4897 4666 
L 4897 0 
L 4281 0 
L 4281 4097 
L 3078 897 
L 2444 897 
L 1241 4097 
L 1241 0 
L 628 0 
L 628 4666 
z
" transform="scale(0.015625)"/>
        <path id="DejaVuSans-20" transform="scale(0.015625)"/>
        <path id="DejaVuSans-26" d="M 1556 2509 
Q 1272 2256 1139 2004 
Q 1006 1753 1006 1478 
Q 1006 1022 1337 719 
Q 1669 416 2169 416 
Q 2466 416 2725 514 
Q 2984 613 3213 813 
L 1556 2509 
z
M 1997 2859 
L 3584 1234 
Q 3769 1513 3872 1830 
Q 3975 2147 3994 2503 
L 4575 2503 
Q 4538 2091 4375 1687 
Q 4213 1284 3922 891 
L 4794 0 
L 4006 0 
L 3559 459 
Q 3234 181 2878 45 
Q 2522 -91 2113 -91 
Q 1359 -91 881 339 
Q 403 769 403 1441 
Q 403 1841 612 2192 
Q 822 2544 1241 2853 
Q 1091 3050 1012 3245 
Q 934 3441 934 3628 
Q 934 4134 1281 4442 
Q 1628 4750 2203 4750 
Q 2463 4750 2720 4694 
Q 2978 4638 3244 4525 
L 3244 3956 
Q 2972 4103 2725 4179 
Q 2478 4256 2266 4256 
Q 1938 4256 1733 4082 
Q 1528 3909 1528 3634 
Q 1528 3475 1620 3314 
Q 1713 3153 1997 2859 
z
" transform="scale(0.015625)"/>
        <path id="DejaVuSans-50" d="M 1259 4147 
L 1259 2394 
L 2053 2394 
Q 2494 2394 2734 2622 
Q 2975 2850 2975 3272 
Q 2975 3691 2734 3919 
Q 2494 4147 2053 4147 
L 1259 4147 
z
M 628 4666 
L 2053 4666 
Q 2838 4666 3239 4311 
Q 3641 3956 3641 3272 
Q 3641 2581 3239 2228 
Q 2838 1875 2053 1875 
L 1259 1875 
L 1259 0 
L 628 0 
L 628 4666 
z
" transform="scale(0.015625)"/>
        <path id="DejaVuSans-78" d="M 3513 3500 
L 2247 1797 
L 3578 0 
L 2900 0 
L 1881 1375 
L 863 0 
L 184 0 
L 1544 1831 
L 300 3500 
L 978 3500 
L 1906 2253 
L 2834 3500 
L 3513 3500 
z
" transform="scale(0.015625)"/>
        <path id="DejaVuSans-36" d="M 2113 2584 
Q 1688 2584 1439 2293 
Q 1191 2003 1191 1497 
Q 1191 994 1439 701 
Q 1688 409 2113 409 
Q 2538 409 2786 701 
Q 3034 994 3034 1497 
Q 3034 2003 2786 2293 
Q 2538 2584 2113 2584 
z
M 3366 4563 
L 3366 3988 
Q 3128 4100 2886 4159 
Q 2644 4219 2406 4219 
Q 1781 4219 1451 3797 
Q 1122 3375 1075 2522 
Q 1259 2794 1537 2939 
Q 1816 3084 2150 3084 
Q 2853 3084 3261 2657 
Q 3669 2231 3669 1497 
Q 3669 778 3244 343 
Q 2819 -91 2113 -91 
Q 1303 -91 875 529 
Q 447 1150 447 2328 
Q 447 3434 972 4092 
Q 1497 4750 2381 4750 
Q 2619 4750 2861 4703 
Q 3103 4656 3366 4563 
z
" transform="scale(0.015625)"/>
       </defs>
       <use xlink:href="#DejaVuSans-48"/>
       <use xlink:href="#DejaVuSans-65" transform="translate(75.195312 0)"/>
       <use xlink:href="#DejaVuSans-73" transform="translate(136.71875 0)"/>
       <use xlink:href="#DejaVuSans-35" transform="translate(188.818359 0)"/>
       <use xlink:href="#DejaVuSans-5f" transform="translate(252.441406 0)"/>
       <use xlink:href="#DejaVuSans-28" transform="translate(302.441406 0)"/>
       <use xlink:href="#DejaVuSans-21" transform="translate(341.455078 0)"/>
       <use xlink:href="#DejaVuSans-4d" transform="translate(381.542969 0)"/>
       <use xlink:href="#DejaVuSans-61" transform="translate(467.822266 0)"/>
       <use xlink:href="#DejaVuSans-73" transform="translate(529.101562 0)"/>
       <use xlink:href="#DejaVuSans-68" transform="translate(581.201172 0)"/>
       <use xlink:href="#DejaVuSans-31" transform="translate(644.580078 0)"/>
       <use xlink:href="#DejaVuSans-20" transform="translate(708.203125 0)"/>
       <use xlink:href="#DejaVuSans-26" transform="translate(739.990234 0)"/>
       <use xlink:href="#DejaVuSans-20" transform="translate(817.96875 0)"/>
       <use xlink:href="#DejaVuSans-50" transform="translate(849.755859 0)"/>
       <use xlink:href="#DejaVuSans-61" transform="translate(905.558594 0)"/>
       <use xlink:href="#DejaVuSans-78" transform="translate(966.837891 0)"/>
       <use xlink:href="#DejaVuSans-36" transform="translate(1026.017578 0)"/>
       <use xlink:href="#DejaVuSans-29" transform="translate(1089.640625 0)"/>
      </g>
     </g>
    </g>
    <g id="ytick_3">
     <g id="line2d_5">
      <path d="M 141.295625 77.094967 
L 252.895625 77.094967 
" clip-path="url(#p2f5d674ccf)" style="fill: none; stroke: #cccccc; stroke-linecap: round"/>
     </g>
     <g id="text_5">
      <!-- Mash1_(!Hes5 &amp; Pax6) -->
      <g style="fill: #262626" transform="translate(7.641719 81.274108) scale(0.11 -0.11)">
       <use xlink:href="#DejaVuSans-4d"/>
       <use xlink:href="#DejaVuSans-61" transform="translate(86.279297 0)"/>
       <use xlink:href="#DejaVuSans-73" transform="translate(147.558594 0)"/>
       <use xlink:href="#DejaVuSans-68" transform="translate(199.658203 0)"/>
       <use xlink:href="#DejaVuSans-31" transform="translate(263.037109 0)"/>
       <use xlink:href="#DejaVuSans-5f" transform="translate(326.660156 0)"/>
       <use xlink:href="#DejaVuSans-28" transform="translate(376.660156 0)"/>
       <use xlink:href="#DejaVuSans-21" transform="translate(415.673828 0)"/>
       <use xlink:href="#DejaVuSans-48" transform="translate(455.761719 0)"/>
       <use xlink:href="#DejaVuSans-65" transform="translate(530.957031 0)"/>
       <use xlink:href="#DejaVuSans-73" transform="translate(592.480469 0)"/>
       <use xlink:href="#DejaVuSans-35" transform="translate(644.580078 0)"/>
       <use xlink:href="#DejaVuSans-20" transform="translate(708.203125 0)"/>
       <use xlink:href="#DejaVuSans-26" transform="translate(739.990234 0)"/>
       <use xlink:href="#DejaVuSans-20" transform="translate(817.96875 0)"/>
       <use xlink:href="#DejaVuSans-50" transform="translate(849.755859 0)"/>
       <use xlink:href="#DejaVuSans-61" transform="translate(905.558594 0)"/>
       <use xlink:href="#DejaVuSans-78" transform="translate(966.837891 0)"/>
       <use xlink:href="#DejaVuSans-36" transform="translate(1026.017578 0)"/>
       <use xlink:href="#DejaVuSans-29" transform="translate(1089.640625 0)"/>
      </g>
     </g>
    </g>
    <g id="ytick_4">
     <g id="line2d_6">
      <path d="M 141.295625 95.663388 
L 252.895625 95.663388 
" clip-path="url(#p2f5d674ccf)" style="fill: none; stroke: #cccccc; stroke-linecap: round"/>
     </g>
     <g id="text_6">
      <!-- Olig2_(Hes5 &amp; !Scl) -->
      <g style="fill: #262626" transform="translate(25.121406 99.842529) scale(0.11 -0.11)">
       <defs>
        <path id="DejaVuSans-4f" d="M 2522 4238 
Q 1834 4238 1429 3725 
Q 1025 3213 1025 2328 
Q 1025 1447 1429 934 
Q 1834 422 2522 422 
Q 3209 422 3611 934 
Q 4013 1447 4013 2328 
Q 4013 3213 3611 3725 
Q 3209 4238 2522 4238 
z
M 2522 4750 
Q 3503 4750 4090 4092 
Q 4678 3434 4678 2328 
Q 4678 1225 4090 567 
Q 3503 -91 2522 -91 
Q 1538 -91 948 565 
Q 359 1222 359 2328 
Q 359 3434 948 4092 
Q 1538 4750 2522 4750 
z
" transform="scale(0.015625)"/>
        <path id="DejaVuSans-69" d="M 603 3500 
L 1178 3500 
L 1178 0 
L 603 0 
L 603 3500 
z
M 603 4863 
L 1178 4863 
L 1178 4134 
L 603 4134 
L 603 4863 
z
" transform="scale(0.015625)"/>
        <path id="DejaVuSans-67" d="M 2906 1791 
Q 2906 2416 2648 2759 
Q 2391 3103 1925 3103 
Q 1463 3103 1205 2759 
Q 947 2416 947 1791 
Q 947 1169 1205 825 
Q 1463 481 1925 481 
Q 2391 481 2648 825 
Q 2906 1169 2906 1791 
z
M 3481 434 
Q 3481 -459 3084 -895 
Q 2688 -1331 1869 -1331 
Q 1566 -1331 1297 -1286 
Q 1028 -1241 775 -1147 
L 775 -588 
Q 1028 -725 1275 -790 
Q 1522 -856 1778 -856 
Q 2344 -856 2625 -561 
Q 2906 -266 2906 331 
L 2906 616 
Q 2728 306 2450 153 
Q 2172 0 1784 0 
Q 1141 0 747 490 
Q 353 981 353 1791 
Q 353 2603 747 3093 
Q 1141 3584 1784 3584 
Q 2172 3584 2450 3431 
Q 2728 3278 2906 2969 
L 2906 3500 
L 3481 3500 
L 3481 434 
z
" transform="scale(0.015625)"/>
        <path id="DejaVuSans-32" d="M 1228 531 
L 3431 531 
L 3431 0 
L 469 0 
L 469 531 
Q 828 903 1448 1529 
Q 2069 2156 2228 2338 
Q 2531 2678 2651 2914 
Q 2772 3150 2772 3378 
Q 2772 3750 2511 3984 
Q 2250 4219 1831 4219 
Q 1534 4219 1204 4116 
Q 875 4013 500 3803 
L 500 4441 
Q 881 4594 1212 4672 
Q 1544 4750 1819 4750 
Q 2544 4750 2975 4387 
Q 3406 4025 3406 3419 
Q 3406 3131 3298 2873 
Q 3191 2616 2906 2266 
Q 2828 2175 2409 1742 
Q 1991 1309 1228 531 
z
" transform="scale(0.015625)"/>
        <path id="DejaVuSans-63" d="M 3122 3366 
L 3122 2828 
Q 2878 2963 2633 3030 
Q 2388 3097 2138 3097 
Q 1578 3097 1268 2742 
Q 959 2388 959 1747 
Q 959 1106 1268 751 
Q 1578 397 2138 397 
Q 2388 397 2633 464 
Q 2878 531 3122 666 
L 3122 134 
Q 2881 22 2623 -34 
Q 2366 -91 2075 -91 
Q 1284 -91 818 406 
Q 353 903 353 1747 
Q 353 2603 823 3093 
Q 1294 3584 2113 3584 
Q 2378 3584 2631 3529 
Q 2884 3475 3122 3366 
z
" transform="scale(0.015625)"/>
       </defs>
       <use xlink:href="#DejaVuSans-4f"/>
       <use xlink:href="#DejaVuSans-6c" transform="translate(78.710938 0)"/>
       <use xlink:href="#DejaVuSans-69" transform="translate(106.494141 0)"/>
       <use xlink:href="#DejaVuSans-67" transform="translate(134.277344 0)"/>
       <use xlink:href="#DejaVuSans-32" transform="translate(197.753906 0)"/>
       <use xlink:href="#DejaVuSans-5f" transform="translate(261.376953 0)"/>
       <use xlink:href="#DejaVuSans-28" transform="translate(311.376953 0)"/>
       <use xlink:href="#DejaVuSans-48" transform="translate(350.390625 0)"/>
       <use xlink:href="#DejaVuSans-65" transform="translate(425.585938 0)"/>
       <use xlink:href="#DejaVuSans-73" transform="translate(487.109375 0)"/>
       <use xlink:href="#DejaVuSans-35" transform="translate(539.208984 0)"/>
       <use xlink:href="#DejaVuSans-20" transform="translate(602.832031 0)"/>
       <use xlink:href="#DejaVuSans-26" transform="translate(634.619141 0)"/>
       <use xlink:href="#DejaVuSans-20" transform="translate(712.597656 0)"/>
       <use xlink:href="#DejaVuSans-21" transform="translate(744.384766 0)"/>
       <use xlink:href="#DejaVuSans-53" transform="translate(784.472656 0)"/>
       <use xlink:href="#DejaVuSans-63" transform="translate(847.949219 0)"/>
       <use xlink:href="#DejaVuSans-6c" transform="translate(902.929688 0)"/>
       <use xlink:href="#DejaVuSans-29" transform="translate(930.712891 0)"/>
      </g>
     </g>
    </g>
    <g id="ytick_5">
     <g id="line2d_7">
      <path d="M 141.295625 114.231809 
L 252.895625 114.231809 
" clip-path="url(#p2f5d674ccf)" style="fill: none; stroke: #cccccc; stroke-linecap: round"/>
     </g>
     <g id="text_7">
      <!-- Pax6_(Pax6) -->
      <g style="fill: #262626" transform="translate(64.93625 118.404934) scale(0.11 -0.11)">
       <use xlink:href="#DejaVuSans-50"/>
       <use xlink:href="#DejaVuSans-61" transform="translate(55.802734 0)"/>
       <use xlink:href="#DejaVuSans-78" transform="translate(117.082031 0)"/>
       <use xlink:href="#DejaVuSans-36" transform="translate(176.261719 0)"/>
       <use xlink:href="#DejaVuSans-5f" transform="translate(239.884766 0)"/>
       <use xlink:href="#DejaVuSans-28" transform="translate(289.884766 0)"/>
       <use xlink:href="#DejaVuSans-50" transform="translate(328.898438 0)"/>
       <use xlink:href="#DejaVuSans-61" transform="translate(384.701172 0)"/>
       <use xlink:href="#DejaVuSans-78" transform="translate(445.980469 0)"/>
       <use xlink:href="#DejaVuSans-36" transform="translate(505.160156 0)"/>
       <use xlink:href="#DejaVuSans-29" transform="translate(568.783203 0)"/>
      </g>
     </g>
    </g>
    <g id="ytick_6">
     <g id="line2d_8">
      <path d="M 141.295625 132.80023 
L 252.895625 132.80023 
" clip-path="url(#p2f5d674ccf)" style="fill: none; stroke: #cccccc; stroke-linecap: round"/>
     </g>
     <g id="text_8">
      <!-- Scl_(Hes5 &amp; !Olig2) -->
      <g style="fill: #262626" transform="translate(25.121406 136.979371) scale(0.11 -0.11)">
       <use xlink:href="#DejaVuSans-53"/>
       <use xlink:href="#DejaVuSans-63" transform="translate(63.476562 0)"/>
       <use xlink:href="#DejaVuSans-6c" transform="translate(118.457031 0)"/>
       <use xlink:href="#DejaVuSans-5f" transform="translate(146.240234 0)"/>
       <use xlink:href="#DejaVuSans-28" transform="translate(196.240234 0)"/>
       <use xlink:href="#DejaVuSans-48" transform="translate(235.253906 0)"/>
       <use xlink:href="#DejaVuSans-65" transform="translate(310.449219 0)"/>
       <use xlink:href="#DejaVuSans-73" transform="translate(371.972656 0)"/>
       <use xlink:href="#DejaVuSans-35" transform="translate(424.072266 0)"/>
       <use xlink:href="#DejaVuSans-20" transform="translate(487.695312 0)"/>
       <use xlink:href="#DejaVuSans-26" transform="translate(519.482422 0)"/>
       <use xlink:href="#DejaVuSans-20" transform="translate(597.460938 0)"/>
       <use xlink:href="#DejaVuSans-21" transform="translate(629.248047 0)"/>
       <use xlink:href="#DejaVuSans-4f" transform="translate(669.335938 0)"/>
       <use xlink:href="#DejaVuSans-6c" transform="translate(748.046875 0)"/>
       <use xlink:href="#DejaVuSans-69" transform="translate(775.830078 0)"/>
       <use xlink:href="#DejaVuSans-67" transform="translate(803.613281 0)"/>
       <use xlink:href="#DejaVuSans-32" transform="translate(867.089844 0)"/>
       <use xlink:href="#DejaVuSans-29" transform="translate(930.712891 0)"/>
      </g>
     </g>
    </g>
    <g id="ytick_7">
     <g id="line2d_9">
      <path d="M 141.295625 151.368651 
L 252.895625 151.368651 
" clip-path="url(#p2f5d674ccf)" style="fill: none; stroke: #cccccc; stroke-linecap: round"/>
     </g>
     <g id="text_9">
      <!-- Sox8_(Olig2) -->
      <g style="fill: #262626" transform="translate(62.079688 155.547792) scale(0.11 -0.11)">
       <defs>
        <path id="DejaVuSans-6f" d="M 1959 3097 
Q 1497 3097 1228 2736 
Q 959 2375 959 1747 
Q 959 1119 1226 758 
Q 1494 397 1959 397 
Q 2419 397 2687 759 
Q 2956 1122 2956 1747 
Q 2956 2369 2687 2733 
Q 2419 3097 1959 3097 
z
M 1959 3584 
Q 2709 3584 3137 3096 
Q 3566 2609 3566 1747 
Q 3566 888 3137 398 
Q 2709 -91 1959 -91 
Q 1206 -91 779 398 
Q 353 888 353 1747 
Q 353 2609 779 3096 
Q 1206 3584 1959 3584 
z
" transform="scale(0.015625)"/>
        <path id="DejaVuSans-38" d="M 2034 2216 
Q 1584 2216 1326 1975 
Q 1069 1734 1069 1313 
Q 1069 891 1326 650 
Q 1584 409 2034 409 
Q 2484 409 2743 651 
Q 3003 894 3003 1313 
Q 3003 1734 2745 1975 
Q 2488 2216 2034 2216 
z
M 1403 2484 
Q 997 2584 770 2862 
Q 544 3141 544 3541 
Q 544 4100 942 4425 
Q 1341 4750 2034 4750 
Q 2731 4750 3128 4425 
Q 3525 4100 3525 3541 
Q 3525 3141 3298 2862 
Q 3072 2584 2669 2484 
Q 3125 2378 3379 2068 
Q 3634 1759 3634 1313 
Q 3634 634 3220 271 
Q 2806 -91 2034 -91 
Q 1263 -91 848 271 
Q 434 634 434 1313 
Q 434 1759 690 2068 
Q 947 2378 1403 2484 
z
M 1172 3481 
Q 1172 3119 1398 2916 
Q 1625 2713 2034 2713 
Q 2441 2713 2670 2916 
Q 2900 3119 2900 3481 
Q 2900 3844 2670 4047 
Q 2441 4250 2034 4250 
Q 1625 4250 1398 4047 
Q 1172 3844 1172 3481 
z
" transform="scale(0.015625)"/>
       </defs>
       <use xlink:href="#DejaVuSans-53"/>
       <use xlink:href="#DejaVuSans-6f" transform="translate(63.476562 0)"/>
       <use xlink:href="#DejaVuSans-78" transform="translate(121.533203 0)"/>
       <use xlink:href="#DejaVuSans-38" transform="translate(180.712891 0)"/>
       <use xlink:href="#DejaVuSans-5f" transform="translate(244.335938 0)"/>
       <use xlink:href="#DejaVuSans-28" transform="translate(294.335938 0)"/>
       <use xlink:href="#DejaVuSans-4f" transform="translate(333.349609 0)"/>
       <use xlink:href="#DejaVuSans-6c" transform="translate(412.060547 0)"/>
       <use xlink:href="#DejaVuSans-69" transform="translate(439.84375 0)"/>
       <use xlink:href="#DejaVuSans-67" transform="translate(467.626953 0)"/>
       <use xlink:href="#DejaVuSans-32" transform="translate(531.103516 0)"/>
       <use xlink:href="#DejaVuSans-29" transform="translate(594.726562 0)"/>
      </g>
     </g>
    </g>
    <g id="ytick_8">
     <g id="line2d_10">
      <path d="M 141.295625 169.937072 
L 252.895625 169.937072 
" clip-path="url(#p2f5d674ccf)" style="fill: none; stroke: #cccccc; stroke-linecap: round"/>
     </g>
     <g id="text_10">
      <!-- Zic1_(Mash1) -->
      <g style="fill: #262626" transform="translate(58.142031 174.116213) scale(0.11 -0.11)">
       <defs>
        <path id="DejaVuSans-5a" d="M 359 4666 
L 4025 4666 
L 4025 4184 
L 1075 531 
L 4097 531 
L 4097 0 
L 288 0 
L 288 481 
L 3238 4134 
L 359 4134 
L 359 4666 
z
" transform="scale(0.015625)"/>
       </defs>
       <use xlink:href="#DejaVuSans-5a"/>
       <use xlink:href="#DejaVuSans-69" transform="translate(68.505859 0)"/>
       <use xlink:href="#DejaVuSans-63" transform="translate(96.289062 0)"/>
       <use xlink:href="#DejaVuSans-31" transform="translate(151.269531 0)"/>
       <use xlink:href="#DejaVuSans-5f" transform="translate(214.892578 0)"/>
       <use xlink:href="#DejaVuSans-28" transform="translate(264.892578 0)"/>
       <use xlink:href="#DejaVuSans-4d" transform="translate(303.90625 0)"/>
       <use xlink:href="#DejaVuSans-61" transform="translate(390.185547 0)"/>
       <use xlink:href="#DejaVuSans-73" transform="translate(451.464844 0)"/>
       <use xlink:href="#DejaVuSans-68" transform="translate(503.564453 0)"/>
       <use xlink:href="#DejaVuSans-31" transform="translate(566.943359 0)"/>
       <use xlink:href="#DejaVuSans-29" transform="translate(630.566406 0)"/>
      </g>
     </g>
    </g>
    <g id="ytick_9">
     <g id="line2d_11">
      <path d="M 141.295625 188.505493 
L 252.895625 188.505493 
" clip-path="url(#p2f5d674ccf)" style="fill: none; stroke: #cccccc; stroke-linecap: round"/>
     </g>
     <g id="text_11">
      <!-- Brn2_(Mash1) -->
      <g style="fill: #262626" transform="translate(55.933437 192.684634) scale(0.11 -0.11)">
       <defs>
        <path id="DejaVuSans-42" d="M 1259 2228 
L 1259 519 
L 2272 519 
Q 2781 519 3026 730 
Q 3272 941 3272 1375 
Q 3272 1813 3026 2020 
Q 2781 2228 2272 2228 
L 1259 2228 
z
M 1259 4147 
L 1259 2741 
L 2194 2741 
Q 2656 2741 2882 2914 
Q 3109 3088 3109 3444 
Q 3109 3797 2882 3972 
Q 2656 4147 2194 4147 
L 1259 4147 
z
M 628 4666 
L 2241 4666 
Q 2963 4666 3353 4366 
Q 3744 4066 3744 3513 
Q 3744 3084 3544 2831 
Q 3344 2578 2956 2516 
Q 3422 2416 3680 2098 
Q 3938 1781 3938 1306 
Q 3938 681 3513 340 
Q 3088 0 2303 0 
L 628 0 
L 628 4666 
z
" transform="scale(0.015625)"/>
        <path id="DejaVuSans-6e" d="M 3513 2113 
L 3513 0 
L 2938 0 
L 2938 2094 
Q 2938 2591 2744 2837 
Q 2550 3084 2163 3084 
Q 1697 3084 1428 2787 
Q 1159 2491 1159 1978 
L 1159 0 
L 581 0 
L 581 3500 
L 1159 3500 
L 1159 2956 
Q 1366 3272 1645 3428 
Q 1925 3584 2291 3584 
Q 2894 3584 3203 3211 
Q 3513 2838 3513 2113 
z
" transform="scale(0.015625)"/>
       </defs>
       <use xlink:href="#DejaVuSans-42"/>
       <use xlink:href="#DejaVuSans-72" transform="translate(68.603516 0)"/>
       <use xlink:href="#DejaVuSans-6e" transform="translate(107.966797 0)"/>
       <use xlink:href="#DejaVuSans-32" transform="translate(171.345703 0)"/>
       <use xlink:href="#DejaVuSans-5f" transform="translate(234.96875 0)"/>
       <use xlink:href="#DejaVuSans-28" transform="translate(284.96875 0)"/>
       <use xlink:href="#DejaVuSans-4d" transform="translate(323.982422 0)"/>
       <use xlink:href="#DejaVuSans-61" transform="translate(410.261719 0)"/>
       <use xlink:href="#DejaVuSans-73" transform="translate(471.541016 0)"/>
       <use xlink:href="#DejaVuSans-68" transform="translate(523.640625 0)"/>
       <use xlink:href="#DejaVuSans-31" transform="translate(587.019531 0)"/>
       <use xlink:href="#DejaVuSans-29" transform="translate(650.642578 0)"/>
      </g>
     </g>
    </g>
    <g id="ytick_10">
     <g id="line2d_12">
      <path d="M 141.295625 207.073914 
L 252.895625 207.073914 
" clip-path="url(#p2f5d674ccf)" style="fill: none; stroke: #cccccc; stroke-linecap: round"/>
     </g>
     <g id="text_12">
      <!-- Stat3_(Scl) -->
      <g style="fill: #262626" transform="translate(72.277031 211.253055) scale(0.11 -0.11)">
       <use xlink:href="#DejaVuSans-53"/>
       <use xlink:href="#DejaVuSans-74" transform="translate(63.476562 0)"/>
       <use xlink:href="#DejaVuSans-61" transform="translate(102.685547 0)"/>
       <use xlink:href="#DejaVuSans-74" transform="translate(163.964844 0)"/>
       <use xlink:href="#DejaVuSans-33" transform="translate(203.173828 0)"/>
       <use xlink:href="#DejaVuSans-5f" transform="translate(266.796875 0)"/>
       <use xlink:href="#DejaVuSans-28" transform="translate(316.796875 0)"/>
       <use xlink:href="#DejaVuSans-53" transform="translate(355.810547 0)"/>
       <use xlink:href="#DejaVuSans-63" transform="translate(419.287109 0)"/>
       <use xlink:href="#DejaVuSans-6c" transform="translate(474.267578 0)"/>
       <use xlink:href="#DejaVuSans-29" transform="translate(502.050781 0)"/>
      </g>
     </g>
    </g>
    <g id="ytick_11">
     <g id="line2d_13">
      <path d="M 141.295625 225.642336 
L 252.895625 225.642336 
" clip-path="url(#p2f5d674ccf)" style="fill: none; stroke: #cccccc; stroke-linecap: round"/>
     </g>
     <g id="text_13">
      <!-- Tuj1_(Brn2) -->
      <g style="fill: #262626" transform="translate(69.784844 229.821476) scale(0.11 -0.11)">
       <defs>
        <path id="DejaVuSans-54" d="M -19 4666 
L 3928 4666 
L 3928 4134 
L 2272 4134 
L 2272 0 
L 1638 0 
L 1638 4134 
L -19 4134 
L -19 4666 
z
" transform="scale(0.015625)"/>
        <path id="DejaVuSans-6a" d="M 603 3500 
L 1178 3500 
L 1178 -63 
Q 1178 -731 923 -1031 
Q 669 -1331 103 -1331 
L -116 -1331 
L -116 -844 
L 38 -844 
Q 366 -844 484 -692 
Q 603 -541 603 -63 
L 603 3500 
z
M 603 4863 
L 1178 4863 
L 1178 4134 
L 603 4134 
L 603 4863 
z
" transform="scale(0.015625)"/>
       </defs>
       <use xlink:href="#DejaVuSans-54"/>
       <use xlink:href="#DejaVuSans-75" transform="translate(45.958984 0)"/>
       <use xlink:href="#DejaVuSans-6a" transform="translate(109.337891 0)"/>
       <use xlink:href="#DejaVuSans-31" transform="translate(137.121094 0)"/>
       <use xlink:href="#DejaVuSans-5f" transform="translate(200.744141 0)"/>
       <use xlink:href="#DejaVuSans-28" transform="translate(250.744141 0)"/>
       <use xlink:href="#DejaVuSans-42" transform="translate(289.757812 0)"/>
       <use xlink:href="#DejaVuSans-72" transform="translate(358.361328 0)"/>
       <use xlink:href="#DejaVuSans-6e" transform="translate(397.724609 0)"/>
       <use xlink:href="#DejaVuSans-32" transform="translate(461.103516 0)"/>
       <use xlink:href="#DejaVuSans-29" transform="translate(524.726562 0)"/>
      </g>
     </g>
    </g>
    <g id="ytick_12">
     <g id="line2d_14">
      <path d="M 141.295625 244.210757 
L 252.895625 244.210757 
" clip-path="url(#p2f5d674ccf)" style="fill: none; stroke: #cccccc; stroke-linecap: round"/>
     </g>
     <g id="text_14">
      <!-- Tuj1_(Myt1L &amp; Zic1) -->
      <g style="fill: #262626" transform="translate(22.981562 248.389897) scale(0.11 -0.11)">
       <defs>
        <path id="DejaVuSans-79" d="M 2059 -325 
Q 1816 -950 1584 -1140 
Q 1353 -1331 966 -1331 
L 506 -1331 
L 506 -850 
L 844 -850 
Q 1081 -850 1212 -737 
Q 1344 -625 1503 -206 
L 1606 56 
L 191 3500 
L 800 3500 
L 1894 763 
L 2988 3500 
L 3597 3500 
L 2059 -325 
z
" transform="scale(0.015625)"/>
       </defs>
       <use xlink:href="#DejaVuSans-54"/>
       <use xlink:href="#DejaVuSans-75" transform="translate(45.958984 0)"/>
       <use xlink:href="#DejaVuSans-6a" transform="translate(109.337891 0)"/>
       <use xlink:href="#DejaVuSans-31" transform="translate(137.121094 0)"/>
       <use xlink:href="#DejaVuSans-5f" transform="translate(200.744141 0)"/>
       <use xlink:href="#DejaVuSans-28" transform="translate(250.744141 0)"/>
       <use xlink:href="#DejaVuSans-4d" transform="translate(289.757812 0)"/>
       <use xlink:href="#DejaVuSans-79" transform="translate(376.037109 0)"/>
       <use xlink:href="#DejaVuSans-74" transform="translate(435.216797 0)"/>
       <use xlink:href="#DejaVuSans-31" transform="translate(474.425781 0)"/>
       <use xlink:href="#DejaVuSans-4c" transform="translate(538.048828 0)"/>
       <use xlink:href="#DejaVuSans-20" transform="translate(593.761719 0)"/>
       <use xlink:href="#DejaVuSans-26" transform="translate(625.548828 0)"/>
       <use xlink:href="#DejaVuSans-20" transform="translate(703.527344 0)"/>
       <use xlink:href="#DejaVuSans-5a" transform="translate(735.314453 0)"/>
       <use xlink:href="#DejaVuSans-69" transform="translate(803.820312 0)"/>
       <use xlink:href="#DejaVuSans-63" transform="translate(831.603516 0)"/>
       <use xlink:href="#DejaVuSans-31" transform="translate(886.583984 0)"/>
       <use xlink:href="#DejaVuSans-29" transform="translate(950.207031 0)"/>
      </g>
     </g>
    </g>
    <g id="ytick_13">
     <g id="line2d_15">
      <path d="M 141.295625 262.779178 
L 252.895625 262.779178 
" clip-path="url(#p2f5d674ccf)" style="fill: none; stroke: #cccccc; stroke-linecap: round"/>
     </g>
     <g id="text_15">
      <!-- Brn2_(Mash1 &amp; !Olig2) -->
      <g style="fill: #262626" transform="translate(7.2 266.958318) scale(0.11 -0.11)">
       <use xlink:href="#DejaVuSans-42"/>
       <use xlink:href="#DejaVuSans-72" transform="translate(68.603516 0)"/>
       <use xlink:href="#DejaVuSans-6e" transform="translate(107.966797 0)"/>
       <use xlink:href="#DejaVuSans-32" transform="translate(171.345703 0)"/>
       <use xlink:href="#DejaVuSans-5f" transform="translate(234.96875 0)"/>
       <use xlink:href="#DejaVuSans-28" transform="translate(284.96875 0)"/>
       <use xlink:href="#DejaVuSans-4d" transform="translate(323.982422 0)"/>
       <use xlink:href="#DejaVuSans-61" transform="translate(410.261719 0)"/>
       <use xlink:href="#DejaVuSans-73" transform="translate(471.541016 0)"/>
       <use xlink:href="#DejaVuSans-68" transform="translate(523.640625 0)"/>
       <use xlink:href="#DejaVuSans-31" transform="translate(587.019531 0)"/>
       <use xlink:href="#DejaVuSans-20" transform="translate(650.642578 0)"/>
       <use xlink:href="#DejaVuSans-26" transform="translate(682.429688 0)"/>
       <use xlink:href="#DejaVuSans-20" transform="translate(760.408203 0)"/>
       <use xlink:href="#DejaVuSans-21" transform="translate(792.195312 0)"/>
       <use xlink:href="#DejaVuSans-4f" transform="translate(832.283203 0)"/>
       <use xlink:href="#DejaVuSans-6c" transform="translate(910.994141 0)"/>
       <use xlink:href="#DejaVuSans-69" transform="translate(938.777344 0)"/>
       <use xlink:href="#DejaVuSans-67" transform="translate(966.560547 0)"/>
       <use xlink:href="#DejaVuSans-32" transform="translate(1030.037109 0)"/>
       <use xlink:href="#DejaVuSans-29" transform="translate(1093.660156 0)"/>
      </g>
     </g>
    </g>
    <g id="ytick_14">
     <g id="line2d_16">
      <path d="M 141.295625 281.347599 
L 252.895625 281.347599 
" clip-path="url(#p2f5d674ccf)" style="fill: none; stroke: #cccccc; stroke-linecap: round"/>
     </g>
     <g id="text_16">
      <!-- Stat3_(Hes5 &amp; Scl) -->
      <g style="fill: #262626" transform="translate(28.937031 285.526739) scale(0.11 -0.11)">
       <use xlink:href="#DejaVuSans-53"/>
       <use xlink:href="#DejaVuSans-74" transform="translate(63.476562 0)"/>
       <use xlink:href="#DejaVuSans-61" transform="translate(102.685547 0)"/>
       <use xlink:href="#DejaVuSans-74" transform="translate(163.964844 0)"/>
       <use xlink:href="#DejaVuSans-33" transform="translate(203.173828 0)"/>
       <use xlink:href="#DejaVuSans-5f" transform="translate(266.796875 0)"/>
       <use xlink:href="#DejaVuSans-28" transform="translate(316.796875 0)"/>
       <use xlink:href="#DejaVuSans-48" transform="translate(355.810547 0)"/>
       <use xlink:href="#DejaVuSans-65" transform="translate(431.005859 0)"/>
       <use xlink:href="#DejaVuSans-73" transform="translate(492.529297 0)"/>
       <use xlink:href="#DejaVuSans-35" transform="translate(544.628906 0)"/>
       <use xlink:href="#DejaVuSans-20" transform="translate(608.251953 0)"/>
       <use xlink:href="#DejaVuSans-26" transform="translate(640.039062 0)"/>
       <use xlink:href="#DejaVuSans-20" transform="translate(718.017578 0)"/>
       <use xlink:href="#DejaVuSans-53" transform="translate(749.804688 0)"/>
       <use xlink:href="#DejaVuSans-63" transform="translate(813.28125 0)"/>
       <use xlink:href="#DejaVuSans-6c" transform="translate(868.261719 0)"/>
       <use xlink:href="#DejaVuSans-29" transform="translate(896.044922 0)"/>
      </g>
     </g>
    </g>
    <g id="ytick_15">
     <g id="line2d_17">
      <path d="M 141.295625 299.91602 
L 252.895625 299.91602 
" clip-path="url(#p2f5d674ccf)" style="fill: none; stroke: #cccccc; stroke-linecap: round"/>
     </g>
     <g id="text_17">
      <!-- Tuj1_(Zic1) -->
      <g style="fill: #262626" transform="translate(71.993437 304.09516) scale(0.11 -0.11)">
       <use xlink:href="#DejaVuSans-54"/>
       <use xlink:href="#DejaVuSans-75" transform="translate(45.958984 0)"/>
       <use xlink:href="#DejaVuSans-6a" transform="translate(109.337891 0)"/>
       <use xlink:href="#DejaVuSans-31" transform="translate(137.121094 0)"/>
       <use xlink:href="#DejaVuSans-5f" transform="translate(200.744141 0)"/>
       <use xlink:href="#DejaVuSans-28" transform="translate(250.744141 0)"/>
       <use xlink:href="#DejaVuSans-5a" transform="translate(289.757812 0)"/>
       <use xlink:href="#DejaVuSans-69" transform="translate(358.263672 0)"/>
       <use xlink:href="#DejaVuSans-63" transform="translate(386.046875 0)"/>
       <use xlink:href="#DejaVuSans-31" transform="translate(441.027344 0)"/>
       <use xlink:href="#DejaVuSans-29" transform="translate(504.650391 0)"/>
      </g>
     </g>
    </g>
    <g id="ytick_16">
     <g id="line2d_18">
      <path d="M 141.295625 318.484441 
L 252.895625 318.484441 
" clip-path="url(#p2f5d674ccf)" style="fill: none; stroke: #cccccc; stroke-linecap: round"/>
     </g>
     <g id="text_18">
      <!-- Tuj1_(Brn2 &amp; Myt1L) -->
      <g style="fill: #262626" transform="translate(20.772969 322.663581) scale(0.11 -0.11)">
       <use xlink:href="#DejaVuSans-54"/>
       <use xlink:href="#DejaVuSans-75" transform="translate(45.958984 0)"/>
       <use xlink:href="#DejaVuSans-6a" transform="translate(109.337891 0)"/>
       <use xlink:href="#DejaVuSans-31" transform="translate(137.121094 0)"/>
       <use xlink:href="#DejaVuSans-5f" transform="translate(200.744141 0)"/>
       <use xlink:href="#DejaVuSans-28" transform="translate(250.744141 0)"/>
       <use xlink:href="#DejaVuSans-42" transform="translate(289.757812 0)"/>
       <use xlink:href="#DejaVuSans-72" transform="translate(358.361328 0)"/>
       <use xlink:href="#DejaVuSans-6e" transform="translate(397.724609 0)"/>
       <use xlink:href="#DejaVuSans-32" transform="translate(461.103516 0)"/>
       <use xlink:href="#DejaVuSans-20" transform="translate(524.726562 0)"/>
       <use xlink:href="#DejaVuSans-26" transform="translate(556.513672 0)"/>
       <use xlink:href="#DejaVuSans-20" transform="translate(634.492188 0)"/>
       <use xlink:href="#DejaVuSans-4d" transform="translate(666.279297 0)"/>
       <use xlink:href="#DejaVuSans-79" transform="translate(752.558594 0)"/>
       <use xlink:href="#DejaVuSans-74" transform="translate(811.738281 0)"/>
       <use xlink:href="#DejaVuSans-31" transform="translate(850.947266 0)"/>
       <use xlink:href="#DejaVuSans-4c" transform="translate(914.570312 0)"/>
       <use xlink:href="#DejaVuSans-29" transform="translate(970.283203 0)"/>
      </g>
     </g>
    </g>
    <g id="ytick_17">
     <g id="line2d_19">
      <path d="M 141.295625 337.052862 
L 252.895625 337.052862 
" clip-path="url(#p2f5d674ccf)" style="fill: none; stroke: #cccccc; stroke-linecap: round"/>
     </g>
     <g id="text_19">
      <!-- Tuj1_(Brn2 &amp; Zic1) -->
      <g style="fill: #262626" transform="translate(30.576719 341.232002) scale(0.11 -0.11)">
       <use xlink:href="#DejaVuSans-54"/>
       <use xlink:href="#DejaVuSans-75" transform="translate(45.958984 0)"/>
       <use xlink:href="#DejaVuSans-6a" transform="translate(109.337891 0)"/>
       <use xlink:href="#DejaVuSans-31" transform="translate(137.121094 0)"/>
       <use xlink:href="#DejaVuSans-5f" transform="translate(200.744141 0)"/>
       <use xlink:href="#DejaVuSans-28" transform="translate(250.744141 0)"/>
       <use xlink:href="#DejaVuSans-42" transform="translate(289.757812 0)"/>
       <use xlink:href="#DejaVuSans-72" transform="translate(358.361328 0)"/>
       <use xlink:href="#DejaVuSans-6e" transform="translate(397.724609 0)"/>
       <use xlink:href="#DejaVuSans-32" transform="translate(461.103516 0)"/>
       <use xlink:href="#DejaVuSans-20" transform="translate(524.726562 0)"/>
       <use xlink:href="#DejaVuSans-26" transform="translate(556.513672 0)"/>
       <use xlink:href="#DejaVuSans-20" transform="translate(634.492188 0)"/>
       <use xlink:href="#DejaVuSans-5a" transform="translate(666.279297 0)"/>
       <use xlink:href="#DejaVuSans-69" transform="translate(734.785156 0)"/>
       <use xlink:href="#DejaVuSans-63" transform="translate(762.568359 0)"/>
       <use xlink:href="#DejaVuSans-31" transform="translate(817.548828 0)"/>
       <use xlink:href="#DejaVuSans-29" transform="translate(881.171875 0)"/>
      </g>
     </g>
    </g>
    <g id="ytick_18">
     <g id="line2d_20">
      <path d="M 141.295625 355.621283 
L 252.895625 355.621283 
" clip-path="url(#p2f5d674ccf)" style="fill: none; stroke: #cccccc; stroke-linecap: round"/>
     </g>
     <g id="text_20">
      <!-- Myt1L_(Olig2) -->
      <g style="fill: #262626" transform="translate(55.5175 359.800424) scale(0.11 -0.11)">
       <use xlink:href="#DejaVuSans-4d"/>
       <use xlink:href="#DejaVuSans-79" transform="translate(86.279297 0)"/>
       <use xlink:href="#DejaVuSans-74" transform="translate(145.458984 0)"/>
       <use xlink:href="#DejaVuSans-31" transform="translate(184.667969 0)"/>
       <use xlink:href="#DejaVuSans-4c" transform="translate(248.291016 0)"/>
       <use xlink:href="#DejaVuSans-5f" transform="translate(304.003906 0)"/>
       <use xlink:href="#DejaVuSans-28" transform="translate(354.003906 0)"/>
       <use xlink:href="#DejaVuSans-4f" transform="translate(393.017578 0)"/>
       <use xlink:href="#DejaVuSans-6c" transform="translate(471.728516 0)"/>
       <use xlink:href="#DejaVuSans-69" transform="translate(499.511719 0)"/>
       <use xlink:href="#DejaVuSans-67" transform="translate(527.294922 0)"/>
       <use xlink:href="#DejaVuSans-32" transform="translate(590.771484 0)"/>
       <use xlink:href="#DejaVuSans-29" transform="translate(654.394531 0)"/>
      </g>
     </g>
    </g>
    <g id="ytick_19">
     <g id="line2d_21">
      <path d="M 141.295625 374.189704 
L 252.895625 374.189704 
" clip-path="url(#p2f5d674ccf)" style="fill: none; stroke: #cccccc; stroke-linecap: round"/>
     </g>
     <g id="text_21">
      <!-- Myt1L_(0) -->
      <g style="fill: #262626" transform="translate(77.271719 378.362829) scale(0.11 -0.11)">
       <use xlink:href="#DejaVuSans-4d"/>
       <use xlink:href="#DejaVuSans-79" transform="translate(86.279297 0)"/>
       <use xlink:href="#DejaVuSans-74" transform="translate(145.458984 0)"/>
       <use xlink:href="#DejaVuSans-31" transform="translate(184.667969 0)"/>
       <use xlink:href="#DejaVuSans-4c" transform="translate(248.291016 0)"/>
       <use xlink:href="#DejaVuSans-5f" transform="translate(304.003906 0)"/>
       <use xlink:href="#DejaVuSans-28" transform="translate(354.003906 0)"/>
       <use xlink:href="#DejaVuSans-30" transform="translate(393.017578 0)"/>
       <use xlink:href="#DejaVuSans-29" transform="translate(456.640625 0)"/>
      </g>
     </g>
    </g>
    <g id="ytick_20">
     <g id="line2d_22">
      <path d="M 141.295625 392.758125 
L 252.895625 392.758125 
" clip-path="url(#p2f5d674ccf)" style="fill: none; stroke: #cccccc; stroke-linecap: round"/>
     </g>
     <g id="text_22">
      <!-- Tuj1_(Myt1L) -->
      <g style="fill: #262626" transform="translate(62.189688 396.937266) scale(0.11 -0.11)">
       <use xlink:href="#DejaVuSans-54"/>
       <use xlink:href="#DejaVuSans-75" transform="translate(45.958984 0)"/>
       <use xlink:href="#DejaVuSans-6a" transform="translate(109.337891 0)"/>
       <use xlink:href="#DejaVuSans-31" transform="translate(137.121094 0)"/>
       <use xlink:href="#DejaVuSans-5f" transform="translate(200.744141 0)"/>
       <use xlink:href="#DejaVuSans-28" transform="translate(250.744141 0)"/>
       <use xlink:href="#DejaVuSans-4d" transform="translate(289.757812 0)"/>
       <use xlink:href="#DejaVuSans-79" transform="translate(376.037109 0)"/>
       <use xlink:href="#DejaVuSans-74" transform="translate(435.216797 0)"/>
       <use xlink:href="#DejaVuSans-31" transform="translate(474.425781 0)"/>
       <use xlink:href="#DejaVuSans-4c" transform="translate(538.048828 0)"/>
       <use xlink:href="#DejaVuSans-29" transform="translate(593.761719 0)"/>
      </g>
     </g>
    </g>
   </g>
   <g id="PathCollection_1">
    <path d="M 215.695625 47.029193 
C 217.570894 47.029193 219.369609 46.284141 220.695625 44.958125 
C 222.02164 43.63211 222.766693 41.833394 222.766693 39.958125 
C 222.766693 38.082856 222.02164 36.284141 220.695625 34.958125 
C 219.369609 33.63211 217.570894 32.887057 215.695625 32.887057 
C 213.820356 32.887057 212.02164 33.63211 210.695625 34.958125 
C 209.369609 36.284141 208.624557 38.082856 208.624557 39.958125 
C 208.624557 41.833394 209.369609 43.63211 210.695625 44.958125 
C 212.02164 46.284141 213.820356 47.029193 215.695625 47.029193 
z
" clip-path="url(#p2f5d674ccf)" style="fill: #fde725; stroke: #000000; stroke-width: 0.8"/>
    <path d="M 215.695625 65.597614 
C 217.570894 65.597614 219.369609 64.852562 220.695625 63.526546 
C 222.02164 62.200531 222.766693 60.401815 222.766693 58.526546 
C 222.766693 56.651277 222.02164 54.852562 220.695625 53.526546 
C 219.369609 52.200531 217.570894 51.455478 215.695625 51.455478 
C 213.820356 51.455478 212.02164 52.200531 210.695625 53.526546 
C 209.369609 54.852562 208.624557 56.651277 208.624557 58.526546 
C 208.624557 60.401815 209.369609 62.200531 210.695625 63.526546 
C 212.02164 64.852562 213.820356 65.597614 215.695625 65.597614 
z
" clip-path="url(#p2f5d674ccf)" style="fill: #fde725; stroke: #000000; stroke-width: 0.8"/>
    <path d="M 215.695625 84.166035 
C 217.570894 84.166035 219.369609 83.420983 220.695625 82.094967 
C 222.02164 80.768952 222.766693 78.970236 222.766693 77.094967 
C 222.766693 75.219698 222.02164 73.420983 220.695625 72.094967 
C 219.369609 70.768952 217.570894 70.023899 215.695625 70.023899 
C 213.820356 70.023899 212.02164 70.768952 210.695625 72.094967 
C 209.369609 73.420983 208.624557 75.219698 208.624557 77.094967 
C 208.624557 78.970236 209.369609 80.768952 210.695625 82.094967 
C 212.02164 83.420983 213.820356 84.166035 215.695625 84.166035 
z
" clip-path="url(#p2f5d674ccf)" style="fill: #fde725; stroke: #000000; stroke-width: 0.8"/>
    <path d="M 215.695625 102.734456 
C 217.570894 102.734456 219.369609 101.989404 220.695625 100.663388 
C 222.02164 99.337373 222.766693 97.538657 222.766693 95.663388 
C 222.766693 93.788119 222.02164 91.989404 220.695625 90.663388 
C 219.369609 89.337373 217.570894 88.59232 215.695625 88.59232 
C 213.820356 88.59232 212.02164 89.337373 210.695625 90.663388 
C 209.369609 91.989404 208.624557 93.788119 208.624557 95.663388 
C 208.624557 97.538657 209.369609 99.337373 210.695625 100.663388 
C 212.02164 101.989404 213.820356 102.734456 215.695625 102.734456 
z
" clip-path="url(#p2f5d674ccf)" style="fill: #fde725; stroke: #000000; stroke-width: 0.8"/>
    <path d="M 215.695625 121.302877 
C 217.570894 121.302877 219.369609 120.557825 220.695625 119.231809 
C 222.02164 117.905794 222.766693 116.107078 222.766693 114.231809 
C 222.766693 112.35654 222.02164 110.557825 220.695625 109.231809 
C 219.369609 107.905794 217.570894 107.160741 215.695625 107.160741 
C 213.820356 107.160741 212.02164 107.905794 210.695625 109.231809 
C 209.369609 110.557825 208.624557 112.35654 208.624557 114.231809 
C 208.624557 116.107078 209.369609 117.905794 210.695625 119.231809 
C 212.02164 120.557825 213.820356 121.302877 215.695625 121.302877 
z
" clip-path="url(#p2f5d674ccf)" style="fill: #fde725; stroke: #000000; stroke-width: 0.8"/>
    <path d="M 215.695625 139.871298 
C 217.570894 139.871298 219.369609 139.126246 220.695625 137.80023 
C 222.02164 136.474215 222.766693 134.675499 222.766693 132.80023 
C 222.766693 130.924961 222.02164 129.126246 220.695625 127.80023 
C 219.369609 126.474215 217.570894 125.729162 215.695625 125.729162 
C 213.820356 125.729162 212.02164 126.474215 210.695625 127.80023 
C 209.369609 129.126246 208.624557 130.924961 208.624557 132.80023 
C 208.624557 134.675499 209.369609 136.474215 210.695625 137.80023 
C 212.02164 139.126246 213.820356 139.871298 215.695625 139.871298 
z
" clip-path="url(#p2f5d674ccf)" style="fill: #fde725; stroke: #000000; stroke-width: 0.8"/>
    <path d="M 215.695625 158.439719 
C 217.570894 158.439719 219.369609 157.694667 220.695625 156.368651 
C 222.02164 155.042636 222.766693 153.24392 222.766693 151.368651 
C 222.766693 149.493382 222.02164 147.694667 220.695625 146.368651 
C 219.369609 145.042636 217.570894 144.297584 215.695625 144.297584 
C 213.820356 144.297584 212.02164 145.042636 210.695625 146.368651 
C 209.369609 147.694667 208.624557 149.493382 208.624557 151.368651 
C 208.624557 153.24392 209.369609 155.042636 210.695625 156.368651 
C 212.02164 157.694667 213.820356 158.439719 215.695625 158.439719 
z
" clip-path="url(#p2f5d674ccf)" style="fill: #fde725; stroke: #000000; stroke-width: 0.8"/>
    <path d="M 215.695625 177.00814 
C 217.570894 177.00814 219.369609 176.263088 220.695625 174.937072 
C 222.02164 173.611057 222.766693 171.812341 222.766693 169.937072 
C 222.766693 168.061803 222.02164 166.263088 220.695625 164.937072 
C 219.369609 163.611057 217.570894 162.866005 215.695625 162.866005 
C 213.820356 162.866005 212.02164 163.611057 210.695625 164.937072 
C 209.369609 166.263088 208.624557 168.061803 208.624557 169.937072 
C 208.624557 171.812341 209.369609 173.611057 210.695625 174.937072 
C 212.02164 176.263088 213.820356 177.00814 215.695625 177.00814 
z
" clip-path="url(#p2f5d674ccf)" style="fill: #fde725; stroke: #000000; stroke-width: 0.8"/>
    <path d="M 215.695625 193.749538 
C 217.086362 193.749538 218.420325 193.196992 219.403724 192.213593 
C 220.387124 191.230193 220.939669 189.89623 220.939669 188.505493 
C 220.939669 187.114757 220.387124 185.780794 219.403724 184.797394 
C 218.420325 183.813995 217.086362 183.261449 215.695625 183.261449 
C 214.304888 183.261449 212.970925 183.813995 211.987526 184.797394 
C 211.004126 185.780794 210.451581 187.114757 210.451581 188.505493 
C 210.451581 189.89623 211.004126 191.230193 211.987526 192.213593 
C 212.970925 193.196992 214.304888 193.749538 215.695625 193.749538 
z
" clip-path="url(#p2f5d674ccf)" style="fill: #21918c; stroke: #000000; stroke-width: 0.8"/>
    <path d="M 215.695625 212.317959 
C 217.086362 212.317959 218.420325 211.765413 219.403724 210.782014 
C 220.387124 209.798614 220.939669 208.464651 220.939669 207.073914 
C 220.939669 205.683178 220.387124 204.349215 219.403724 203.365815 
C 218.420325 202.382416 217.086362 201.82987 215.695625 201.82987 
C 214.304888 201.82987 212.970925 202.382416 211.987526 203.365815 
C 211.004126 204.349215 210.451581 205.683178 210.451581 207.073914 
C 210.451581 208.464651 211.004126 209.798614 211.987526 210.782014 
C 212.970925 211.765413 214.304888 212.317959 215.695625 212.317959 
z
" clip-path="url(#p2f5d674ccf)" style="fill: #21918c; stroke: #000000; stroke-width: 0.8"/>
    <path d="M 215.695625 230.365438 
C 216.948206 230.365438 218.149654 229.867782 219.035362 228.982073 
C 219.921071 228.096364 220.418727 226.894917 220.418727 225.642336 
C 220.418727 224.389754 219.921071 223.188307 219.035362 222.302598 
C 218.149654 221.416889 216.948206 220.919234 215.695625 220.919234 
C 214.443044 220.919234 213.241596 221.416889 212.355888 222.302598 
C 211.470179 223.188307 210.972523 224.389754 210.972523 225.642336 
C 210.972523 226.894917 211.470179 228.096364 212.355888 228.982073 
C 213.241596 229.867782 214.443044 230.365438 215.695625 230.365438 
z
" clip-path="url(#p2f5d674ccf)" style="fill: #2b748e; stroke: #000000; stroke-width: 0.8"/>
    <path d="M 215.695625 248.133079 
C 216.735837 248.133079 217.733585 247.719799 218.469126 246.984258 
C 219.204667 246.248717 219.617948 245.250969 219.617948 244.210757 
C 219.617948 243.170544 219.204667 242.172797 218.469126 241.437256 
C 217.733585 240.701715 216.735837 240.288434 215.695625 240.288434 
C 214.655413 240.288434 213.657665 240.701715 212.922124 241.437256 
C 212.186583 242.172797 211.773302 243.170544 211.773302 244.210757 
C 211.773302 245.250969 212.186583 246.248717 212.922124 246.984258 
C 213.657665 247.719799 214.655413 248.133079 215.695625 248.133079 
z
" clip-path="url(#p2f5d674ccf)" style="fill: #3d4d8a; stroke: #000000; stroke-width: 0.8"/>
    <path d="M 215.695625 268.023222 
C 217.086362 268.023222 218.420325 267.470676 219.403724 266.487277 
C 220.387124 265.503877 220.939669 264.169914 220.939669 262.779178 
C 220.939669 261.388441 220.387124 260.054478 219.403724 259.071078 
C 218.420325 258.087679 217.086362 257.535133 215.695625 257.535133 
C 214.304888 257.535133 212.970925 258.087679 211.987526 259.071078 
C 211.004126 260.054478 210.451581 261.388441 210.451581 262.779178 
C 210.451581 264.169914 211.004126 265.503877 211.987526 266.487277 
C 212.970925 267.470676 214.304888 268.023222 215.695625 268.023222 
z
" clip-path="url(#p2f5d674ccf)" style="fill: #21918c; stroke: #000000; stroke-width: 0.8"/>
    <path d="M 215.695625 286.591643 
C 217.086362 286.591643 218.420325 286.039097 219.403724 285.055698 
C 220.387124 284.072299 220.939669 282.738335 220.939669 281.347599 
C 220.939669 279.956862 220.387124 278.622899 219.403724 277.639499 
C 218.420325 276.6561 217.086362 276.103554 215.695625 276.103554 
C 214.304888 276.103554 212.970925 276.6561 211.987526 277.639499 
C 211.004126 278.622899 210.451581 279.956862 210.451581 281.347599 
C 210.451581 282.738335 211.004126 284.072299 211.987526 285.055698 
C 212.970925 286.039097 214.304888 286.591643 215.695625 286.591643 
z
" clip-path="url(#p2f5d674ccf)" style="fill: #21918c; stroke: #000000; stroke-width: 0.8"/>
    <path d="M 215.695625 304.639122 
C 216.948206 304.639122 218.149654 304.141466 219.035362 303.255757 
C 219.921071 302.370048 220.418727 301.168601 220.418727 299.91602 
C 220.418727 298.663438 219.921071 297.461991 219.035362 296.576282 
C 218.149654 295.690574 216.948206 295.192918 215.695625 295.192918 
C 214.443044 295.192918 213.241596 295.690574 212.355888 296.576282 
C 211.470179 297.461991 210.972523 298.663438 210.972523 299.91602 
C 210.972523 301.168601 211.470179 302.370048 212.355888 303.255757 
C 213.241596 304.141466 214.443044 304.639122 215.695625 304.639122 
z
" clip-path="url(#p2f5d674ccf)" style="fill: #2b748e; stroke: #000000; stroke-width: 0.8"/>
    <path d="M 215.695625 322.406763 
C 216.735837 322.406763 217.733585 321.993483 218.469126 321.257942 
C 219.204667 320.522401 219.617948 319.524653 219.617948 318.484441 
C 219.617948 317.444229 219.204667 316.446481 218.469126 315.71094 
C 217.733585 314.975399 216.735837 314.562118 215.695625 314.562118 
C 214.655413 314.562118 213.657665 314.975399 212.922124 315.71094 
C 212.186583 316.446481 211.773302 317.444229 211.773302 318.484441 
C 211.773302 319.524653 212.186583 320.522401 212.922124 321.257942 
C 213.657665 321.993483 214.655413 322.406763 215.695625 322.406763 
z
" clip-path="url(#p2f5d674ccf)" style="fill: #3d4d8a; stroke: #000000; stroke-width: 0.8"/>
    <path d="M 215.695625 341.775964 
C 216.948206 341.775964 218.149654 341.278308 219.035362 340.392599 
C 219.921071 339.506891 220.418727 338.305443 220.418727 337.052862 
C 220.418727 335.800281 219.921071 334.598833 219.035362 333.713124 
C 218.149654 332.827416 216.948206 332.32976 215.695625 332.32976 
C 214.443044 332.32976 213.241596 332.827416 212.355888 333.713124 
C 211.470179 334.598833 210.972523 335.800281 210.972523 337.052862 
C 210.972523 338.305443 211.470179 339.506891 212.355888 340.392599 
C 213.241596 341.278308 214.443044 341.775964 215.695625 341.775964 
z
" clip-path="url(#p2f5d674ccf)" style="fill: #2b748e; stroke: #000000; stroke-width: 0.8"/>
    <path d="M 215.695625 357.857351 
C 216.288637 357.857351 216.857441 357.621745 217.276764 357.202422 
C 217.696087 356.783099 217.931693 356.214295 217.931693 355.621283 
C 217.931693 355.028271 217.696087 354.459467 217.276764 354.040144 
C 216.857441 353.620821 216.288637 353.385215 215.695625 353.385215 
C 215.102613 353.385215 214.533809 353.620821 214.114486 354.040144 
C 213.695163 354.459467 213.459557 355.028271 213.459557 355.621283 
C 213.459557 356.214295 213.695163 356.783099 214.114486 357.202422 
C 214.533809 357.621745 215.102613 357.857351 215.695625 357.857351 
z
" clip-path="url(#p2f5d674ccf)" style="fill: #440154; stroke: #000000; stroke-width: 0.8"/>
    <path d="M 215.695625 381.260772 
C 217.570894 381.260772 219.369609 380.515719 220.695625 379.189704 
C 222.02164 377.863688 222.766693 376.064973 222.766693 374.189704 
C 222.766693 372.314435 222.02164 370.515719 220.695625 369.189704 
C 219.369609 367.863688 217.570894 367.118636 215.695625 367.118636 
C 213.820356 367.118636 212.02164 367.863688 210.695625 369.189704 
C 209.369609 370.515719 208.624557 372.314435 208.624557 374.189704 
C 208.624557 376.064973 209.369609 377.863688 210.695625 379.189704 
C 212.02164 380.515719 213.820356 381.260772 215.695625 381.260772 
z
" clip-path="url(#p2f5d674ccf)" style="fill: #fde725; stroke: #000000; stroke-width: 0.8"/>
    <path d="M 215.695625 397.099341 
C 216.846929 397.099341 217.951233 396.641923 218.765328 395.827828 
C 219.579423 395.013733 220.036841 393.909429 220.036841 392.758125 
C 220.036841 391.606821 219.579423 390.502517 218.765328 389.688422 
C 217.951233 388.874327 216.846929 388.416909 215.695625 388.416909 
C 214.544321 388.416909 213.440017 388.874327 212.625922 389.688422 
C 211.811827 390.502517 211.354409 391.606821 211.354409 392.758125 
C 211.354409 393.909429 211.811827 395.013733 212.625922 395.827828 
C 213.440017 396.641923 214.544321 397.099341 215.695625 397.099341 
z
" clip-path="url(#p2f5d674ccf)" style="fill: #34618d; stroke: #000000; stroke-width: 0.8"/>
    <path d="M 178.495625 47.029193 
C 180.370894 47.029193 182.169609 46.284141 183.495625 44.958125 
C 184.821641 43.63211 185.566693 41.833394 185.566693 39.958125 
C 185.566693 38.082856 184.821641 36.284141 183.495625 34.958125 
C 182.169609 33.63211 180.370894 32.887057 178.495625 32.887057 
C 176.620356 32.887057 174.821641 33.63211 173.495625 34.958125 
C 172.169609 36.284141 171.424557 38.082856 171.424557 39.958125 
C 171.424557 41.833394 172.169609 43.63211 173.495625 44.958125 
C 174.821641 46.284141 176.620356 47.029193 178.495625 47.029193 
z
" clip-path="url(#p2f5d674ccf)" style="fill: #fde725; stroke: #000000; stroke-width: 0.8"/>
    <path d="M 178.495625 65.597614 
C 180.370894 65.597614 182.169609 64.852562 183.495625 63.526546 
C 184.821641 62.200531 185.566693 60.401815 185.566693 58.526546 
C 185.566693 56.651277 184.821641 54.852562 183.495625 53.526546 
C 182.169609 52.200531 180.370894 51.455478 178.495625 51.455478 
C 176.620356 51.455478 174.821641 52.200531 173.495625 53.526546 
C 172.169609 54.852562 171.424557 56.651277 171.424557 58.526546 
C 171.424557 60.401815 172.169609 62.200531 173.495625 63.526546 
C 174.821641 64.852562 176.620356 65.597614 178.495625 65.597614 
z
" clip-path="url(#p2f5d674ccf)" style="fill: #fde725; stroke: #000000; stroke-width: 0.8"/>
    <path d="M 178.495625 84.166035 
C 180.370894 84.166035 182.169609 83.420983 183.495625 82.094967 
C 184.821641 80.768952 185.566693 78.970236 185.566693 77.094967 
C 185.566693 75.219698 184.821641 73.420983 183.495625 72.094967 
C 182.169609 70.768952 180.370894 70.023899 178.495625 70.023899 
C 176.620356 70.023899 174.821641 70.768952 173.495625 72.094967 
C 172.169609 73.420983 171.424557 75.219698 171.424557 77.094967 
C 171.424557 78.970236 172.169609 80.768952 173.495625 82.094967 
C 174.821641 83.420983 176.620356 84.166035 178.495625 84.166035 
z
" clip-path="url(#p2f5d674ccf)" style="fill: #fde725; stroke: #000000; stroke-width: 0.8"/>
    <path d="M 178.495625 102.734456 
C 180.370894 102.734456 182.169609 101.989404 183.495625 100.663388 
C 184.821641 99.337373 185.566693 97.538657 185.566693 95.663388 
C 185.566693 93.788119 184.821641 91.989404 183.495625 90.663388 
C 182.169609 89.337373 180.370894 88.59232 178.495625 88.59232 
C 176.620356 88.59232 174.821641 89.337373 173.495625 90.663388 
C 172.169609 91.989404 171.424557 93.788119 171.424557 95.663388 
C 171.424557 97.538657 172.169609 99.337373 173.495625 100.663388 
C 174.821641 101.989404 176.620356 102.734456 178.495625 102.734456 
z
" clip-path="url(#p2f5d674ccf)" style="fill: #fde725; stroke: #000000; stroke-width: 0.8"/>
    <path d="M 178.495625 121.302877 
C 180.370894 121.302877 182.169609 120.557825 183.495625 119.231809 
C 184.821641 117.905794 185.566693 116.107078 185.566693 114.231809 
C 185.566693 112.35654 184.821641 110.557825 183.495625 109.231809 
C 182.169609 107.905794 180.370894 107.160741 178.495625 107.160741 
C 176.620356 107.160741 174.821641 107.905794 173.495625 109.231809 
C 172.169609 110.557825 171.424557 112.35654 171.424557 114.231809 
C 171.424557 116.107078 172.169609 117.905794 173.495625 119.231809 
C 174.821641 120.557825 176.620356 121.302877 178.495625 121.302877 
z
" clip-path="url(#p2f5d674ccf)" style="fill: #fde725; stroke: #000000; stroke-width: 0.8"/>
    <path d="M 178.495625 139.871298 
C 180.370894 139.871298 182.169609 139.126246 183.495625 137.80023 
C 184.821641 136.474215 185.566693 134.675499 185.566693 132.80023 
C 185.566693 130.924961 184.821641 129.126246 183.495625 127.80023 
C 182.169609 126.474215 180.370894 125.729162 178.495625 125.729162 
C 176.620356 125.729162 174.821641 126.474215 173.495625 127.80023 
C 172.169609 129.126246 171.424557 130.924961 171.424557 132.80023 
C 171.424557 134.675499 172.169609 136.474215 173.495625 137.80023 
C 174.821641 139.126246 176.620356 139.871298 178.495625 139.871298 
z
" clip-path="url(#p2f5d674ccf)" style="fill: #fde725; stroke: #000000; stroke-width: 0.8"/>
    <path d="M 178.495625 158.439719 
C 180.370894 158.439719 182.169609 157.694667 183.495625 156.368651 
C 184.821641 155.042636 185.566693 153.24392 185.566693 151.368651 
C 185.566693 149.493382 184.821641 147.694667 183.495625 146.368651 
C 182.169609 145.042636 180.370894 144.297584 178.495625 144.297584 
C 176.620356 144.297584 174.821641 145.042636 173.495625 146.368651 
C 172.169609 147.694667 171.424557 149.493382 171.424557 151.368651 
C 171.424557 153.24392 172.169609 155.042636 173.495625 156.368651 
C 174.821641 157.694667 176.620356 158.439719 178.495625 158.439719 
z
" clip-path="url(#p2f5d674ccf)" style="fill: #fde725; stroke: #000000; stroke-width: 0.8"/>
    <path d="M 178.495625 177.00814 
C 180.370894 177.00814 182.169609 176.263088 183.495625 174.937072 
C 184.821641 173.611057 185.566693 171.812341 185.566693 169.937072 
C 185.566693 168.061803 184.821641 166.263088 183.495625 164.937072 
C 182.169609 163.611057 180.370894 162.866005 178.495625 162.866005 
C 176.620356 162.866005 174.821641 163.611057 173.495625 164.937072 
C 172.169609 166.263088 171.424557 168.061803 171.424557 169.937072 
C 171.424557 171.812341 172.169609 173.611057 173.495625 174.937072 
C 174.821641 176.263088 176.620356 177.00814 178.495625 177.00814 
z
" clip-path="url(#p2f5d674ccf)" style="fill: #fde725; stroke: #000000; stroke-width: 0.8"/>
    <path d="M 178.495625 193.749538 
C 179.886362 193.749538 181.220325 193.196992 182.203724 192.213593 
C 183.187124 191.230193 183.739669 189.89623 183.739669 188.505493 
C 183.739669 187.114757 183.187124 185.780794 182.203724 184.797394 
C 181.220325 183.813995 179.886362 183.261449 178.495625 183.261449 
C 177.104888 183.261449 175.770925 183.813995 174.787526 184.797394 
C 173.804126 185.780794 173.251581 187.114757 173.251581 188.505493 
C 173.251581 189.89623 173.804126 191.230193 174.787526 192.213593 
C 175.770925 193.196992 177.104888 193.749538 178.495625 193.749538 
z
" clip-path="url(#p2f5d674ccf)" style="fill: #21918c; stroke: #000000; stroke-width: 0.8"/>
    <path d="M 178.495625 212.317959 
C 179.886362 212.317959 181.220325 211.765413 182.203724 210.782014 
C 183.187124 209.798614 183.739669 208.464651 183.739669 207.073914 
C 183.739669 205.683178 183.187124 204.349215 182.203724 203.365815 
C 181.220325 202.382416 179.886362 201.82987 178.495625 201.82987 
C 177.104888 201.82987 175.770925 202.382416 174.787526 203.365815 
C 173.804126 204.349215 173.251581 205.683178 173.251581 207.073914 
C 173.251581 208.464651 173.804126 209.798614 174.787526 210.782014 
C 175.770925 211.765413 177.104888 212.317959 178.495625 212.317959 
z
" clip-path="url(#p2f5d674ccf)" style="fill: #21918c; stroke: #000000; stroke-width: 0.8"/>
    <path d="M 178.495625 230.114471 
C 179.681649 230.114471 180.819257 229.643259 181.657903 228.804613 
C 182.496548 227.965967 182.967761 226.82836 182.967761 225.642336 
C 182.967761 224.456311 182.496548 223.318704 181.657903 222.480058 
C 180.819257 221.641412 179.681649 221.1702 178.495625 221.1702 
C 177.309601 221.1702 176.171993 221.641412 175.333347 222.480058 
C 174.494702 223.318704 174.023489 224.456311 174.023489 225.642336 
C 174.023489 226.82836 174.494702 227.965967 175.333347 228.804613 
C 176.171993 229.643259 177.309601 230.114471 178.495625 230.114471 
z
" clip-path="url(#p2f5d674ccf)" style="fill: #31688e; stroke: #000000; stroke-width: 0.8"/>
    <path d="M 178.495625 248.682893 
C 179.681649 248.682893 180.819257 248.21168 181.657903 247.373034 
C 182.496548 246.534388 182.967761 245.396781 182.967761 244.210757 
C 182.967761 243.024732 182.496548 241.887125 181.657903 241.048479 
C 180.819257 240.209833 179.681649 239.738621 178.495625 239.738621 
C 177.309601 239.738621 176.171993 240.209833 175.333347 241.048479 
C 174.494702 241.887125 174.023489 243.024732 174.023489 244.210757 
C 174.023489 245.396781 174.494702 246.534388 175.333347 247.373034 
C 176.171993 248.21168 177.309601 248.682893 178.495625 248.682893 
z
" clip-path="url(#p2f5d674ccf)" style="fill: #31688e; stroke: #000000; stroke-width: 0.8"/>
    <path d="M 178.495625 268.023222 
C 179.886362 268.023222 181.220325 267.470676 182.203724 266.487277 
C 183.187124 265.503877 183.739669 264.169914 183.739669 262.779178 
C 183.739669 261.388441 183.187124 260.054478 182.203724 259.071078 
C 181.220325 258.087679 179.886362 257.535133 178.495625 257.535133 
C 177.104888 257.535133 175.770925 258.087679 174.787526 259.071078 
C 173.804126 260.054478 173.251581 261.388441 173.251581 262.779178 
C 173.251581 264.169914 173.804126 265.503877 174.787526 266.487277 
C 175.770925 267.470676 177.104888 268.023222 178.495625 268.023222 
z
" clip-path="url(#p2f5d674ccf)" style="fill: #21918c; stroke: #000000; stroke-width: 0.8"/>
    <path d="M 178.495625 286.591643 
C 179.886362 286.591643 181.220325 286.039097 182.203724 285.055698 
C 183.187124 284.072299 183.739669 282.738335 183.739669 281.347599 
C 183.739669 279.956862 183.187124 278.622899 182.203724 277.639499 
C 181.220325 276.6561 179.886362 276.103554 178.495625 276.103554 
C 177.104888 276.103554 175.770925 276.6561 174.787526 277.639499 
C 173.804126 278.622899 173.251581 279.956862 173.251581 281.347599 
C 173.251581 282.738335 173.804126 284.072299 174.787526 285.055698 
C 175.770925 286.039097 177.104888 286.591643 178.495625 286.591643 
z
" clip-path="url(#p2f5d674ccf)" style="fill: #21918c; stroke: #000000; stroke-width: 0.8"/>
    <path d="M 178.495625 304.388156 
C 179.681649 304.388156 180.819257 303.916943 181.657903 303.078297 
C 182.496548 302.239652 182.967761 301.102044 182.967761 299.91602 
C 182.967761 298.729995 182.496548 297.592388 181.657903 296.753742 
C 180.819257 295.915096 179.681649 295.443884 178.495625 295.443884 
C 177.309601 295.443884 176.171993 295.915096 175.333347 296.753742 
C 174.494702 297.592388 174.023489 298.729995 174.023489 299.91602 
C 174.023489 301.102044 174.494702 302.239652 175.333347 303.078297 
C 176.171993 303.916943 177.309601 304.388156 178.495625 304.388156 
z
" clip-path="url(#p2f5d674ccf)" style="fill: #31688e; stroke: #000000; stroke-width: 0.8"/>
    <path d="M 178.495625 322.956577 
C 179.681649 322.956577 180.819257 322.485364 181.657903 321.646718 
C 182.496548 320.808073 182.967761 319.670465 182.967761 318.484441 
C 182.967761 317.298416 182.496548 316.160809 181.657903 315.322163 
C 180.819257 314.483517 179.681649 314.012305 178.495625 314.012305 
C 177.309601 314.012305 176.171993 314.483517 175.333347 315.322163 
C 174.494702 316.160809 174.023489 317.298416 174.023489 318.484441 
C 174.023489 319.670465 174.494702 320.808073 175.333347 321.646718 
C 176.171993 322.485364 177.309601 322.956577 178.495625 322.956577 
z
" clip-path="url(#p2f5d674ccf)" style="fill: #31688e; stroke: #000000; stroke-width: 0.8"/>
    <path d="M 178.495625 342.052862 
C 179.821641 342.052862 181.093524 341.52603 182.031159 340.588396 
C 182.968793 339.650761 183.495625 338.378877 183.495625 337.052862 
C 183.495625 335.726846 182.968793 334.454962 182.031159 333.517328 
C 181.093524 332.579693 179.821641 332.052862 178.495625 332.052862 
C 177.169609 332.052862 175.897726 332.579693 174.960091 333.517328 
C 174.022457 334.454962 173.495625 335.726846 173.495625 337.052862 
C 173.495625 338.378877 174.022457 339.650761 174.960091 340.588396 
C 175.897726 341.52603 177.169609 342.052862 178.495625 342.052862 
z
" clip-path="url(#p2f5d674ccf)" style="fill: #26828e; stroke: #000000; stroke-width: 0.8"/>
    <path d="M 178.495625 362.692351 
C 180.370894 362.692351 182.169609 361.947298 183.495625 360.621283 
C 184.821641 359.295267 185.566693 357.496552 185.566693 355.621283 
C 185.566693 353.746014 184.821641 351.947298 183.495625 350.621283 
C 182.169609 349.295267 180.370894 348.550215 178.495625 348.550215 
C 176.620356 348.550215 174.821641 349.295267 173.495625 350.621283 
C 172.169609 351.947298 171.424557 353.746014 171.424557 355.621283 
C 171.424557 357.496552 172.169609 359.295267 173.495625 360.621283 
C 174.821641 361.947298 176.620356 362.692351 178.495625 362.692351 
z
" clip-path="url(#p2f5d674ccf)" style="fill: #fde725; stroke: #000000; stroke-width: 0.8"/>
    <path d="M 178.495625 376.425772 
C 179.088637 376.425772 179.657441 376.190166 180.076764 375.770843 
C 180.496087 375.35152 180.731693 374.782716 180.731693 374.189704 
C 180.731693 373.596692 180.496087 373.027888 180.076764 372.608565 
C 179.657441 372.189242 179.088637 371.953636 178.495625 371.953636 
C 177.902613 371.953636 177.333809 372.189242 176.914486 372.608565 
C 176.495163 373.027888 176.259557 373.596692 176.259557 374.189704 
C 176.259557 374.782716 176.495163 375.35152 176.914486 375.770843 
C 177.333809 376.190166 177.902613 376.425772 178.495625 376.425772 
z
" clip-path="url(#p2f5d674ccf)" style="fill: #440154; stroke: #000000; stroke-width: 0.8"/>
    <path d="M 178.495625 394.994193 
C 179.088637 394.994193 179.657441 394.758587 180.076764 394.339264 
C 180.496087 393.919941 180.731693 393.351137 180.731693 392.758125 
C 180.731693 392.165113 180.496087 391.596309 180.076764 391.176986 
C 179.657441 390.757663 179.088637 390.522057 178.495625 390.522057 
C 177.902613 390.522057 177.333809 390.757663 176.914486 391.176986 
C 176.495163 391.596309 176.259557 392.165113 176.259557 392.758125 
C 176.259557 393.351137 176.495163 393.919941 176.914486 394.339264 
C 177.333809 394.758587 177.902613 394.994193 178.495625 394.994193 
z
" clip-path="url(#p2f5d674ccf)" style="fill: #440154; stroke: #000000; stroke-width: 0.8"/>
   </g>
   <g id="patch_3">
    <path d="M 141.295625 410.398125 
L 141.295625 22.318125 
" style="fill: none; stroke: #cccccc; stroke-width: 1.25; stroke-linejoin: miter; stroke-linecap: square"/>
   </g>
   <g id="patch_4">
    <path d="M 252.895625 410.398125 
L 252.895625 22.318125 
" style="fill: none; stroke: #cccccc; stroke-width: 1.25; stroke-linejoin: miter; stroke-linecap: square"/>
   </g>
   <g id="patch_5">
    <path d="M 141.295625 410.398125 
L 252.895625 410.398125 
" style="fill: none; stroke: #cccccc; stroke-width: 1.25; stroke-linejoin: miter; stroke-linecap: square"/>
   </g>
   <g id="patch_6">
    <path d="M 141.295625 22.318125 
L 252.895625 22.318125 
" style="fill: none; stroke: #cccccc; stroke-width: 1.25; stroke-linejoin: miter; stroke-linecap: square"/>
   </g>
   <g id="text_23">
    <!-- Dotplot of Cluster Means -->
    <g style="fill: #262626" transform="translate(122.679687 16.318125) scale(0.12 -0.12)">
     <defs>
      <path id="DejaVuSans-44" d="M 1259 4147 
L 1259 519 
L 2022 519 
Q 2988 519 3436 956 
Q 3884 1394 3884 2338 
Q 3884 3275 3436 3711 
Q 2988 4147 2022 4147 
L 1259 4147 
z
M 628 4666 
L 1925 4666 
Q 3281 4666 3915 4102 
Q 4550 3538 4550 2338 
Q 4550 1131 3912 565 
Q 3275 0 1925 0 
L 628 0 
L 628 4666 
z
" transform="scale(0.015625)"/>
      <path id="DejaVuSans-70" d="M 1159 525 
L 1159 -1331 
L 581 -1331 
L 581 3500 
L 1159 3500 
L 1159 2969 
Q 1341 3281 1617 3432 
Q 1894 3584 2278 3584 
Q 2916 3584 3314 3078 
Q 3713 2572 3713 1747 
Q 3713 922 3314 415 
Q 2916 -91 2278 -91 
Q 1894 -91 1617 61 
Q 1341 213 1159 525 
z
M 3116 1747 
Q 3116 2381 2855 2742 
Q 2594 3103 2138 3103 
Q 1681 3103 1420 2742 
Q 1159 2381 1159 1747 
Q 1159 1113 1420 752 
Q 1681 391 2138 391 
Q 2594 391 2855 752 
Q 3116 1113 3116 1747 
z
" transform="scale(0.015625)"/>
      <path id="DejaVuSans-66" d="M 2375 4863 
L 2375 4384 
L 1825 4384 
Q 1516 4384 1395 4259 
Q 1275 4134 1275 3809 
L 1275 3500 
L 2222 3500 
L 2222 3053 
L 1275 3053 
L 1275 0 
L 697 0 
L 697 3053 
L 147 3053 
L 147 3500 
L 697 3500 
L 697 3744 
Q 697 4328 969 4595 
Q 1241 4863 1831 4863 
L 2375 4863 
z
" transform="scale(0.015625)"/>
     </defs>
     <use xlink:href="#DejaVuSans-44"/>
     <use xlink:href="#DejaVuSans-6f" transform="translate(77.001953 0)"/>
     <use xlink:href="#DejaVuSans-74" transform="translate(138.183594 0)"/>
     <use xlink:href="#DejaVuSans-70" transform="translate(177.392578 0)"/>
     <use xlink:href="#DejaVuSans-6c" transform="translate(240.869141 0)"/>
     <use xlink:href="#DejaVuSans-6f" transform="translate(268.652344 0)"/>
     <use xlink:href="#DejaVuSans-74" transform="translate(329.833984 0)"/>
     <use xlink:href="#DejaVuSans-20" transform="translate(369.042969 0)"/>
     <use xlink:href="#DejaVuSans-6f" transform="translate(400.830078 0)"/>
     <use xlink:href="#DejaVuSans-66" transform="translate(462.011719 0)"/>
     <use xlink:href="#DejaVuSans-20" transform="translate(497.216797 0)"/>
     <use xlink:href="#DejaVuSans-43" transform="translate(529.003906 0)"/>
     <use xlink:href="#DejaVuSans-6c" transform="translate(598.828125 0)"/>
     <use xlink:href="#DejaVuSans-75" transform="translate(626.611328 0)"/>
     <use xlink:href="#DejaVuSans-73" transform="translate(689.990234 0)"/>
     <use xlink:href="#DejaVuSans-74" transform="translate(742.089844 0)"/>
     <use xlink:href="#DejaVuSans-65" transform="translate(781.298828 0)"/>
     <use xlink:href="#DejaVuSans-72" transform="translate(842.822266 0)"/>
     <use xlink:href="#DejaVuSans-20" transform="translate(883.935547 0)"/>
     <use xlink:href="#DejaVuSans-4d" transform="translate(915.722656 0)"/>
     <use xlink:href="#DejaVuSans-65" transform="translate(1002.001953 0)"/>
     <use xlink:href="#DejaVuSans-61" transform="translate(1063.525391 0)"/>
     <use xlink:href="#DejaVuSans-6e" transform="translate(1124.804688 0)"/>
     <use xlink:href="#DejaVuSans-73" transform="translate(1188.183594 0)"/>
    </g>
   </g>
  </g>
 </g>
 <defs>
  <clipPath id="p2f5d674ccf">
   <rect x="141.295625" y="22.318125" width="111.6" height="388.08"/>
  </clipPath>
 </defs>
</svg>
